<?xml version="1.0" encoding="UTF-8" standalone="no"?>
<!DOCTYPE svg PUBLIC "-//W3C//DTD SVG 1.1//EN"
 "http://www.w3.org/Graphics/SVG/1.1/DTD/svg11.dtd">
<!-- Generated by graphviz version 9.0.0 (20230911.1827)
 -->
<!-- Title: Graphical Class Hierarchy Pages: 1 -->
<svg width="234pt" height="636pt"
 viewBox="0.00 0.00 233.50 636.00" xmlns="http://www.w3.org/2000/svg" xmlns:xlink="http://www.w3.org/1999/xlink">
<g id="graph0" class="graph" transform="scale(1 1) rotate(0) translate(4 632)">
<title>Graphical Class Hierarchy</title>
<!-- Node0 -->
<g id="Node000000" class="node">
<title>Node0</title>
<g id="a_Node000000"><a xlink:title=" ">
<polygon fill="#e0e0e0" stroke="#999999" points="70,-324 0,-324 0,-304 70,-304 70,-324"/>
<text text-anchor="middle" x="35" y="-310.5" font-family="Helvetica,sans-Serif" font-size="10.00">testing::Test</text>
</a>
</g>
</g>
<!-- Node1 -->
<g id="Node000001" class="node">
<title>Node1</title>
<g id="a_Node000001"><a xlink:href="class_authenticate_login_test.html" target="_top" xlink:title=" ">
<polygon fill="white" stroke="#666666" points="222.12,-628 109.38,-628 109.38,-608 222.12,-608 222.12,-628"/>
<text text-anchor="middle" x="165.75" y="-614.5" font-family="Helvetica,sans-Serif" font-size="10.00">AuthenticateLoginTest</text>
</a>
</g>
</g>
<!-- Node0&#45;&gt;Node1 -->
<g id="edge1_Node000000_Node000001" class="edge">
<title>Node0&#45;&gt;Node1</title>
<g id="a_edge1_Node000000_Node000001"><a xlink:title=" ">
<path fill="none" stroke="#63b8ff" d="M38.58,-335.62C46.1,-395.22 69.78,-560.08 106,-599 109.21,-602.45 113.06,-605.28 117.22,-607.6"/>
<polygon fill="#63b8ff" stroke="#63b8ff" points="42.06,-335.29 37.37,-325.79 35.12,-336.14 42.06,-335.29"/>
</a>
</g>
</g>
<!-- Node2 -->
<g id="Node000002" class="node">
<title>Node2</title>
<g id="a_Node000002"><a xlink:href="class_color_test.html" target="_top" xlink:title=" ">
<polygon fill="white" stroke="#666666" points="194.38,-590 137.12,-590 137.12,-570 194.38,-570 194.38,-590"/>
<text text-anchor="middle" x="165.75" y="-576.5" font-family="Helvetica,sans-Serif" font-size="10.00">ColorTest</text>
</a>
</g>
</g>
<!-- Node0&#45;&gt;Node2 -->
<g id="edge2_Node000000_Node000002" class="edge">
<title>Node0&#45;&gt;Node2</title>
<g id="a_edge2_Node000000_Node000002"><a xlink:title=" ">
<path fill="none" stroke="#63b8ff" d="M35.71,-335.62C36.27,-383.04 44.37,-497.07 106,-561 114.11,-569.41 125.96,-574.11 136.9,-576.72"/>
<polygon fill="#63b8ff" stroke="#63b8ff" points="39.21,-335.86 35.71,-325.86 32.21,-335.86 39.21,-335.86"/>
</a>
</g>
</g>
<!-- Node3 -->
<g id="Node000003" class="node">
<title>Node3</title>
<g id="a_Node000003"><a xlink:href="class_feedback_test.html" target="_top" xlink:title=" ">
<polygon fill="white" stroke="#666666" points="204.5,-552 127,-552 127,-532 204.5,-532 204.5,-552"/>
<text text-anchor="middle" x="165.75" y="-538.5" font-family="Helvetica,sans-Serif" font-size="10.00">FeedbackTest</text>
</a>
</g>
</g>
<!-- Node0&#45;&gt;Node3 -->
<g id="edge3_Node000000_Node000003" class="edge">
<title>Node0&#45;&gt;Node3</title>
<g id="a_edge3_Node000000_Node000003"><a xlink:title=" ">
<path fill="none" stroke="#63b8ff" d="M37.05,-335.69C40.25,-377.74 53.25,-470.8 106,-523 111.71,-528.66 119.12,-532.63 126.74,-535.42"/>
<polygon fill="#63b8ff" stroke="#63b8ff" points="40.55,-335.65 36.43,-325.89 33.57,-336.09 40.55,-335.65"/>
</a>
</g>
</g>
<!-- Node4 -->
<g id="Node000004" class="node">
<title>Node4</title>
<g id="a_Node000004"><a xlink:href="class_main_menu_test.html" target="_top" xlink:title=" ">
<polygon fill="white" stroke="#666666" points="205.62,-514 125.88,-514 125.88,-494 205.62,-494 205.62,-514"/>
<text text-anchor="middle" x="165.75" y="-500.5" font-family="Helvetica,sans-Serif" font-size="10.00">MainMenuTest</text>
</a>
</g>
</g>
<!-- Node0&#45;&gt;Node4 -->
<g id="edge4_Node000000_Node000004" class="edge">
<title>Node0&#45;&gt;Node4</title>
<g id="a_edge4_Node000000_Node000004"><a xlink:title=" ">
<path fill="none" stroke="#63b8ff" d="M38.85,-335.19C44.78,-371.11 61.81,-444.03 106,-485 111.5,-490.1 118.39,-493.83 125.49,-496.56"/>
<polygon fill="#63b8ff" stroke="#63b8ff" points="42.36,-335.01 37.41,-325.64 35.43,-336.05 42.36,-335.01"/>
</a>
</g>
</g>
<!-- Node5 -->
<g id="Node000005" class="node">
<title>Node5</title>
<g id="a_Node000005"><a xlink:href="class_menu_test.html" target="_top" xlink:title=" ">
<polygon fill="white" stroke="#666666" points="195.12,-476 136.38,-476 136.38,-456 195.12,-456 195.12,-476"/>
<text text-anchor="middle" x="165.75" y="-462.5" font-family="Helvetica,sans-Serif" font-size="10.00">MenuTest</text>
</a>
</g>
</g>
<!-- Node0&#45;&gt;Node5 -->
<g id="edge5_Node000000_Node000005" class="edge">
<title>Node0&#45;&gt;Node5</title>
<g id="a_edge5_Node000000_Node000005"><a xlink:title=" ">
<path fill="none" stroke="#63b8ff" d="M41.69,-335.37C50.59,-364.7 70.54,-417.16 106,-447 114.45,-454.11 125.61,-458.57 135.93,-461.37"/>
<polygon fill="#63b8ff" stroke="#63b8ff" points="45.07,-334.47 38.96,-325.81 38.34,-336.39 45.07,-334.47"/>
</a>
</g>
</g>
<!-- Node6 -->
<g id="Node000006" class="node">
<title>Node6</title>
<g id="a_Node000006"><a xlink:href="class_plan_timelines_test.html" target="_top" xlink:title=" ">
<polygon fill="white" stroke="#666666" points="213.5,-438 118,-438 118,-418 213.5,-418 213.5,-438"/>
<text text-anchor="middle" x="165.75" y="-424.5" font-family="Helvetica,sans-Serif" font-size="10.00">PlanTimelinesTest</text>
</a>
</g>
</g>
<!-- Node0&#45;&gt;Node6 -->
<g id="edge6_Node000000_Node000006" class="edge">
<title>Node0&#45;&gt;Node6</title>
<g id="a_edge6_Node000000_Node000006"><a xlink:title=" ">
<path fill="none" stroke="#63b8ff" d="M45.99,-334.24C57.59,-355.75 78.68,-389.32 106,-409 110.78,-412.45 116.22,-415.29 121.82,-417.63"/>
<polygon fill="#63b8ff" stroke="#63b8ff" points="49.2,-332.84 41.5,-325.57 42.99,-336.06 49.2,-332.84"/>
</a>
</g>
</g>
<!-- Node7 -->
<g id="Node000007" class="node">
<title>Node7</title>
<g id="a_Node000007"><a xlink:href="class_progress_tracking_test.html" target="_top" xlink:title=" ">
<polygon fill="white" stroke="#666666" points="221,-400 110.5,-400 110.5,-380 221,-380 221,-400"/>
<text text-anchor="middle" x="165.75" y="-386.5" font-family="Helvetica,sans-Serif" font-size="10.00">ProgressTrackingTest</text>
</a>
</g>
</g>
<!-- Node0&#45;&gt;Node7 -->
<g id="edge7_Node000000_Node000007" class="edge">
<title>Node0&#45;&gt;Node7</title>
<g id="a_edge7_Node000000_Node000007"><a xlink:title=" ">
<path fill="none" stroke="#63b8ff" d="M54.29,-332.11C67.67,-344.51 86.76,-360.54 106,-371 112.12,-374.33 118.92,-377.19 125.66,-379.61"/>
<polygon fill="#63b8ff" stroke="#63b8ff" points="56.76,-329.63 47.11,-325.27 51.93,-334.7 56.76,-329.63"/>
</a>
</g>
</g>
<!-- Node8 -->
<g id="Node000008" class="node">
<title>Node8</title>
<g id="a_Node000008"><a xlink:href="class_project_setup_test.html" target="_top" xlink:title=" ">
<polygon fill="white" stroke="#666666" points="211.25,-362 120.25,-362 120.25,-342 211.25,-342 211.25,-362"/>
<text text-anchor="middle" x="165.75" y="-348.5" font-family="Helvetica,sans-Serif" font-size="10.00">ProjectSetupTest</text>
</a>
</g>
</g>
<!-- Node0&#45;&gt;Node8 -->
<g id="edge8_Node000000_Node000008" class="edge">
<title>Node0&#45;&gt;Node8</title>
<g id="a_edge8_Node000000_Node000008"><a xlink:title=" ">
<path fill="none" stroke="#63b8ff" d="M80.86,-327.24C96.8,-331.95 114.51,-337.17 129.53,-341.6"/>
<polygon fill="#63b8ff" stroke="#63b8ff" points="82.2,-323.99 71.62,-324.51 80.22,-330.7 82.2,-323.99"/>
</a>
</g>
</g>
<!-- Node9 -->
<g id="Node000009" class="node">
<title>Node9</title>
<g id="a_Node000009"><a xlink:href="class_task_assignment_test.html" target="_top" xlink:title=" ">
<polygon fill="white" stroke="#666666" points="219.5,-324 112,-324 112,-304 219.5,-304 219.5,-324"/>
<text text-anchor="middle" x="165.75" y="-310.5" font-family="Helvetica,sans-Serif" font-size="10.00">TaskAssignmentTest</text>
</a>
</g>
</g>
<!-- Node0&#45;&gt;Node9 -->
<g id="edge9_Node000000_Node000009" class="edge">
<title>Node0&#45;&gt;Node9</title>
<g id="a_edge9_Node000000_Node000009"><a xlink:title=" ">
<path fill="none" stroke="#63b8ff" d="M81.4,-314C91.29,-314 101.83,-314 111.97,-314"/>
<polygon fill="#63b8ff" stroke="#63b8ff" points="81.68,-310.5 71.68,-314 81.68,-317.5 81.68,-310.5"/>
</a>
</g>
</g>
<!-- Node10 -->
<g id="Node000010" class="node">
<title>Node10</title>
<g id="a_Node000010"><a xlink:href="class_type_test.html" target="_top" xlink:title=" ">
<polygon fill="white" stroke="#666666" points="193.62,-286 137.88,-286 137.88,-266 193.62,-266 193.62,-286"/>
<text text-anchor="middle" x="165.75" y="-272.5" font-family="Helvetica,sans-Serif" font-size="10.00">TypeTest</text>
</a>
</g>
</g>
<!-- Node0&#45;&gt;Node10 -->
<g id="edge10_Node000000_Node000010" class="edge">
<title>Node0&#45;&gt;Node10</title>
<g id="a_edge10_Node000000_Node000010"><a xlink:title=" ">
<path fill="none" stroke="#63b8ff" d="M80.98,-300.73C99.92,-295.13 121.34,-288.81 137.77,-283.96"/>
<polygon fill="#63b8ff" stroke="#63b8ff" points="80.22,-297.3 71.62,-303.49 82.2,-304.01 80.22,-297.3"/>
</a>
</g>
</g>
<!-- Node11 -->
<g id="Node000011" class="node">
<title>Node11</title>
<g id="a_Node000011"><a xlink:href="class_user_choice_test.html" target="_top" xlink:title=" ">
<polygon fill="white" stroke="#666666" points="208.25,-248 123.25,-248 123.25,-228 208.25,-228 208.25,-248"/>
<text text-anchor="middle" x="165.75" y="-234.5" font-family="Helvetica,sans-Serif" font-size="10.00">UserChoiceTest</text>
</a>
</g>
</g>
<!-- Node0&#45;&gt;Node11 -->
<g id="edge11_Node000000_Node000011" class="edge">
<title>Node0&#45;&gt;Node11</title>
<g id="a_edge11_Node000000_Node000011"><a xlink:title=" ">
<path fill="none" stroke="#63b8ff" d="M54.29,-295.89C67.67,-283.49 86.76,-267.46 106,-257 112.12,-253.67 118.92,-250.81 125.66,-248.39"/>
<polygon fill="#63b8ff" stroke="#63b8ff" points="51.93,-293.3 47.11,-302.73 56.76,-298.37 51.93,-293.3"/>
</a>
</g>
</g>
<!-- Node12 -->
<g id="Node000012" class="node">
<title>Node12</title>
<g id="a_Node000012"><a xlink:href="class_user_plan_test.html" target="_top" xlink:title=" ">
<polygon fill="white" stroke="#666666" points="203,-210 128.5,-210 128.5,-190 203,-190 203,-210"/>
<text text-anchor="middle" x="165.75" y="-196.5" font-family="Helvetica,sans-Serif" font-size="10.00">UserPlanTest</text>
</a>
</g>
</g>
<!-- Node0&#45;&gt;Node12 -->
<g id="edge12_Node000000_Node000012" class="edge">
<title>Node0&#45;&gt;Node12</title>
<g id="a_edge12_Node000000_Node000012"><a xlink:title=" ">
<path fill="none" stroke="#63b8ff" d="M45.99,-293.76C57.59,-272.25 78.68,-238.68 106,-219 112.61,-214.24 120.47,-210.63 128.26,-207.91"/>
<polygon fill="#63b8ff" stroke="#63b8ff" points="42.99,-291.94 41.5,-302.43 49.2,-295.16 42.99,-291.94"/>
</a>
</g>
</g>
<!-- Node13 -->
<g id="Node000013" class="node">
<title>Node13</title>
<g id="a_Node000013"><a xlink:href="class_user_record_test.html" target="_top" xlink:title=" ">
<polygon fill="white" stroke="#666666" points="208.62,-172 122.88,-172 122.88,-152 208.62,-152 208.62,-172"/>
<text text-anchor="middle" x="165.75" y="-158.5" font-family="Helvetica,sans-Serif" font-size="10.00">UserRecordTest</text>
</a>
</g>
</g>
<!-- Node0&#45;&gt;Node13 -->
<g id="edge13_Node000000_Node000013" class="edge">
<title>Node0&#45;&gt;Node13</title>
<g id="a_edge13_Node000000_Node000013"><a xlink:title=" ">
<path fill="none" stroke="#63b8ff" d="M41.69,-292.63C50.59,-263.3 70.54,-210.84 106,-181 110.84,-176.93 116.57,-173.72 122.52,-171.2"/>
<polygon fill="#63b8ff" stroke="#63b8ff" points="38.34,-291.61 38.96,-302.19 45.07,-293.53 38.34,-291.61"/>
</a>
</g>
</g>
<!-- Node14 -->
<g id="Node000014" class="node">
<title>Node14</title>
<g id="a_Node000014"><a xlink:href="class_venue_test.html" target="_top" xlink:title=" ">
<polygon fill="white" stroke="#666666" points="197,-134 134.5,-134 134.5,-114 197,-114 197,-134"/>
<text text-anchor="middle" x="165.75" y="-120.5" font-family="Helvetica,sans-Serif" font-size="10.00">VenueTest</text>
</a>
</g>
</g>
<!-- Node0&#45;&gt;Node14 -->
<g id="edge14_Node000000_Node000014" class="edge">
<title>Node0&#45;&gt;Node14</title>
<g id="a_edge14_Node000000_Node000014"><a xlink:title=" ">
<path fill="none" stroke="#63b8ff" d="M38.85,-292.81C44.78,-256.89 61.81,-183.97 106,-143 113.7,-135.86 124.12,-131.4 134.04,-128.62"/>
<polygon fill="#63b8ff" stroke="#63b8ff" points="35.43,-291.95 37.41,-302.36 42.36,-292.99 35.43,-291.95"/>
</a>
</g>
</g>
<!-- Node15 -->
<g id="Node000015" class="node">
<title>Node15</title>
<g id="a_Node000015"><a xlink:href="class_write_user_info_to_file_test.html" target="_top" xlink:title=" ">
<polygon fill="white" stroke="#666666" points="225.5,-96 106,-96 106,-76 225.5,-76 225.5,-96"/>
<text text-anchor="middle" x="165.75" y="-82.5" font-family="Helvetica,sans-Serif" font-size="10.00">WriteUserInfoToFileTest</text>
</a>
</g>
</g>
<!-- Node0&#45;&gt;Node15 -->
<g id="edge15_Node000000_Node000015" class="edge">
<title>Node0&#45;&gt;Node15</title>
<g id="a_edge15_Node000000_Node000015"><a xlink:title=" ">
<path fill="none" stroke="#63b8ff" d="M37.05,-292.31C40.25,-250.26 53.25,-157.2 106,-105 109.5,-101.53 113.65,-98.7 118.08,-96.38"/>
<polygon fill="#63b8ff" stroke="#63b8ff" points="33.57,-291.91 36.43,-302.11 40.55,-292.35 33.57,-291.91"/>
</a>
</g>
</g>
<!-- Node16 -->
<g id="Node000016" class="node">
<title>Node16</title>
<g id="a_Node000016"><a xlink:href="classattendees_login_test.html" target="_top" xlink:title=" ">
<polygon fill="white" stroke="#666666" points="216.12,-58 115.38,-58 115.38,-38 216.12,-38 216.12,-58"/>
<text text-anchor="middle" x="165.75" y="-44.5" font-family="Helvetica,sans-Serif" font-size="10.00">attendeesLoginTest</text>
</a>
</g>
</g>
<!-- Node0&#45;&gt;Node16 -->
<g id="edge16_Node000000_Node000016" class="edge">
<title>Node0&#45;&gt;Node16</title>
<g id="a_edge16_Node000000_Node000016"><a xlink:title=" ">
<path fill="none" stroke="#63b8ff" d="M35.71,-292.38C36.27,-244.96 44.37,-130.93 106,-67 109.35,-63.53 113.33,-60.69 117.63,-58.37"/>
<polygon fill="#63b8ff" stroke="#63b8ff" points="32.21,-292.14 35.71,-302.14 39.21,-292.14 32.21,-292.14"/>
</a>
</g>
</g>
<!-- Node17 -->
<g id="Node000017" class="node">
<title>Node17</title>
<g id="a_Node000017"><a xlink:href="classuser_authentication_test.html" target="_top" xlink:title=" ">
<polygon fill="white" stroke="#666666" points="223.62,-20 107.88,-20 107.88,0 223.62,0 223.62,-20"/>
<text text-anchor="middle" x="165.75" y="-6.5" font-family="Helvetica,sans-Serif" font-size="10.00">userAuthenticationTest</text>
</a>
</g>
</g>
<!-- Node0&#45;&gt;Node17 -->
<g id="edge17_Node000000_Node000017" class="edge">
<title>Node0&#45;&gt;Node17</title>
<g id="a_edge17_Node000000_Node000017"><a xlink:title=" ">
<path fill="none" stroke="#63b8ff" d="M38.58,-292.38C46.1,-232.78 69.78,-67.92 106,-29 109.21,-25.55 113.06,-22.72 117.22,-20.4"/>
<polygon fill="#63b8ff" stroke="#63b8ff" points="35.12,-291.86 37.37,-302.21 42.06,-292.71 35.12,-291.86"/>
</a>
</g>
</g>
</g>
</svg>
