<?xml version="1.0" encoding="UTF-8" standalone="no"?>
<!DOCTYPE svg PUBLIC "-//W3C//DTD SVG 1.1//EN"
 "http://www.w3.org/Graphics/SVG/1.1/DTD/svg11.dtd">
<!-- Generated by graphviz version 9.0.0 (20230911.1827)
 -->
<!-- Title: Graphical Class Hierarchy Pages: 1 -->
<svg width="234pt" height="522pt"
 viewBox="0.00 0.00 233.50 522.00" xmlns="http://www.w3.org/2000/svg" xmlns:xlink="http://www.w3.org/1999/xlink">
<g id="graph0" class="graph" transform="scale(1 1) rotate(0) translate(4 518)">
<title>Graphical Class Hierarchy</title>
<!-- Node0 -->
<g id="Node000000" class="node">
<title>Node0</title>
<g id="a_Node000000"><a xlink:title=" ">
<polygon fill="#e0e0e0" stroke="#999999" points="70,-267 0,-267 0,-247 70,-247 70,-267"/>
<text text-anchor="middle" x="35" y="-253.5" font-family="Helvetica,sans-Serif" font-size="10.00">testing::Test</text>
</a>
</g>
</g>
<!-- Node1 -->
<g id="Node000001" class="node">
<title>Node1</title>
<g id="a_Node000001"><a xlink:href="class_authenticate_login_test.html" target="_top" xlink:title=" ">
<polygon fill="white" stroke="#666666" points="222.12,-514 109.38,-514 109.38,-494 222.12,-494 222.12,-514"/>
<text text-anchor="middle" x="165.75" y="-500.5" font-family="Helvetica,sans-Serif" font-size="10.00">AuthenticateLoginTest</text>
</a>
</g>
</g>
<!-- Node0&#45;&gt;Node1 -->
<g id="edge1_Node000000_Node000001" class="edge">
<title>Node0&#45;&gt;Node1</title>
<g id="a_edge1_Node000000_Node000001"><a xlink:title=" ">
<path fill="none" stroke="#63b8ff" d="M36.33,-278.77C38.2,-323.63 48.87,-427.01 106,-485 109.39,-488.44 113.4,-491.25 117.71,-493.56"/>
<polygon fill="#63b8ff" stroke="#63b8ff" points="39.83,-278.7 36.04,-268.81 32.83,-278.9 39.83,-278.7"/>
</a>
</g>
</g>
<!-- Node2 -->
<g id="Node000002" class="node">
<title>Node2</title>
<g id="a_Node000002"><a xlink:href="class_color_test.html" target="_top" xlink:title=" ">
<polygon fill="white" stroke="#666666" points="194.38,-476 137.12,-476 137.12,-456 194.38,-456 194.38,-476"/>
<text text-anchor="middle" x="165.75" y="-462.5" font-family="Helvetica,sans-Serif" font-size="10.00">ColorTest</text>
</a>
</g>
</g>
<!-- Node0&#45;&gt;Node2 -->
<g id="edge2_Node000000_Node000002" class="edge">
<title>Node0&#45;&gt;Node2</title>
<g id="a_edge2_Node000000_Node000002"><a xlink:title=" ">
<path fill="none" stroke="#63b8ff" d="M37.89,-278.6C42.46,-317.72 57.61,-400.51 106,-447 114.35,-455.02 126.11,-459.65 136.92,-462.33"/>
<polygon fill="#63b8ff" stroke="#63b8ff" points="41.39,-278.43 36.88,-268.84 34.43,-279.15 41.39,-278.43"/>
</a>
</g>
</g>
<!-- Node3 -->
<g id="Node000003" class="node">
<title>Node3</title>
<g id="a_Node000003"><a xlink:href="class_main_menu_test.html" target="_top" xlink:title=" ">
<polygon fill="white" stroke="#666666" points="205.62,-438 125.88,-438 125.88,-418 205.62,-418 205.62,-438"/>
<text text-anchor="middle" x="165.75" y="-424.5" font-family="Helvetica,sans-Serif" font-size="10.00">MainMenuTest</text>
</a>
</g>
</g>
<!-- Node0&#45;&gt;Node3 -->
<g id="edge3_Node000000_Node000003" class="edge">
<title>Node0&#45;&gt;Node3</title>
<g id="a_edge3_Node000000_Node000003"><a xlink:title=" ">
<path fill="none" stroke="#63b8ff" d="M40.06,-278.12C47.44,-310.82 66.12,-373.6 106,-409 111.61,-413.98 118.55,-417.66 125.66,-420.37"/>
<polygon fill="#63b8ff" stroke="#63b8ff" points="43.56,-277.74 38.08,-268.67 36.71,-279.17 43.56,-277.74"/>
</a>
</g>
</g>
<!-- Node4 -->
<g id="Node000004" class="node">
<title>Node4</title>
<g id="a_Node000004"><a xlink:href="class_menu_test.html" target="_top" xlink:title=" ">
<polygon fill="white" stroke="#666666" points="195.12,-400 136.38,-400 136.38,-380 195.12,-380 195.12,-400"/>
<text text-anchor="middle" x="165.75" y="-386.5" font-family="Helvetica,sans-Serif" font-size="10.00">MenuTest</text>
</a>
</g>
</g>
<!-- Node0&#45;&gt;Node4 -->
<g id="edge4_Node000000_Node000004" class="edge">
<title>Node0&#45;&gt;Node4</title>
<g id="a_edge4_Node000000_Node000004"><a xlink:title=" ">
<path fill="none" stroke="#63b8ff" d="M43.56,-277.88C53.85,-303.44 74.64,-346.33 106,-371 114.59,-377.76 125.67,-382.15 135.88,-384.98"/>
<polygon fill="#63b8ff" stroke="#63b8ff" points="46.85,-276.69 40,-268.6 40.31,-279.19 46.85,-276.69"/>
</a>
</g>
</g>
<!-- Node5 -->
<g id="Node000005" class="node">
<title>Node5</title>
<g id="a_Node000005"><a xlink:href="class_project_setup_test.html" target="_top" xlink:title=" ">
<polygon fill="white" stroke="#666666" points="211.25,-362 120.25,-362 120.25,-342 211.25,-342 211.25,-362"/>
<text text-anchor="middle" x="165.75" y="-348.5" font-family="Helvetica,sans-Serif" font-size="10.00">ProjectSetupTest</text>
</a>
</g>
</g>
<!-- Node0&#45;&gt;Node5 -->
<g id="edge5_Node000000_Node000005" class="edge">
<title>Node0&#45;&gt;Node5</title>
<g id="a_edge5_Node000000_Node000005"><a xlink:title=" ">
<path fill="none" stroke="#63b8ff" d="M49.45,-276.55C62.18,-293.68 82.77,-318.12 106,-333 111.24,-336.35 117.11,-339.16 123.08,-341.5"/>
<polygon fill="#63b8ff" stroke="#63b8ff" points="52.46,-274.74 43.78,-268.66 46.77,-278.82 52.46,-274.74"/>
</a>
</g>
</g>
<!-- Node6 -->
<g id="Node000006" class="node">
<title>Node6</title>
<g id="a_Node000006"><a xlink:href="class_task_assignment_test.html" target="_top" xlink:title=" ">
<polygon fill="white" stroke="#666666" points="219.5,-324 112,-324 112,-304 219.5,-304 219.5,-324"/>
<text text-anchor="middle" x="165.75" y="-310.5" font-family="Helvetica,sans-Serif" font-size="10.00">TaskAssignmentTest</text>
</a>
</g>
</g>
<!-- Node0&#45;&gt;Node6 -->
<g id="edge6_Node000000_Node000006" class="edge">
<title>Node0&#45;&gt;Node6</title>
<g id="a_edge6_Node000000_Node000006"><a xlink:title=" ">
<path fill="none" stroke="#63b8ff" d="M63.06,-273.21C75.82,-280.45 91.4,-288.74 106,-295 113.29,-298.13 121.28,-301.03 128.94,-303.59"/>
<polygon fill="#63b8ff" stroke="#63b8ff" points="64.82,-270.18 54.41,-268.2 61.31,-276.24 64.82,-270.18"/>
</a>
</g>
</g>
<!-- Node7 -->
<g id="Node000007" class="node">
<title>Node7</title>
<g id="a_Node000007"><a xlink:href="class_type_test.html" target="_top" xlink:title=" ">
<polygon fill="white" stroke="#666666" points="193.62,-286 137.88,-286 137.88,-266 193.62,-266 193.62,-286"/>
<text text-anchor="middle" x="165.75" y="-272.5" font-family="Helvetica,sans-Serif" font-size="10.00">TypeTest</text>
</a>
</g>
</g>
<!-- Node0&#45;&gt;Node7 -->
<g id="edge7_Node000000_Node000007" class="edge">
<title>Node0&#45;&gt;Node7</title>
<g id="a_edge7_Node000000_Node000007"><a xlink:title=" ">
<path fill="none" stroke="#63b8ff" d="M81.51,-263.72C100.32,-266.49 121.49,-269.62 137.77,-272.02"/>
<polygon fill="#63b8ff" stroke="#63b8ff" points="82.07,-260.26 71.66,-262.26 81.04,-267.19 82.07,-260.26"/>
</a>
</g>
</g>
<!-- Node8 -->
<g id="Node000008" class="node">
<title>Node8</title>
<g id="a_Node000008"><a xlink:href="class_user_choice_test.html" target="_top" xlink:title=" ">
<polygon fill="white" stroke="#666666" points="208.25,-248 123.25,-248 123.25,-228 208.25,-228 208.25,-248"/>
<text text-anchor="middle" x="165.75" y="-234.5" font-family="Helvetica,sans-Serif" font-size="10.00">UserChoiceTest</text>
</a>
</g>
</g>
<!-- Node0&#45;&gt;Node8 -->
<g id="edge8_Node000000_Node000008" class="edge">
<title>Node0&#45;&gt;Node8</title>
<g id="a_edge8_Node000000_Node000008"><a xlink:title=" ">
<path fill="none" stroke="#63b8ff" d="M81.24,-250.32C94.84,-248.32 109.71,-246.12 123.07,-244.15"/>
<polygon fill="#63b8ff" stroke="#63b8ff" points="81.04,-246.81 71.66,-251.74 82.07,-253.74 81.04,-246.81"/>
</a>
</g>
</g>
<!-- Node9 -->
<g id="Node000009" class="node">
<title>Node9</title>
<g id="a_Node000009"><a xlink:href="class_user_plan_test.html" target="_top" xlink:title=" ">
<polygon fill="white" stroke="#666666" points="203,-210 128.5,-210 128.5,-190 203,-190 203,-210"/>
<text text-anchor="middle" x="165.75" y="-196.5" font-family="Helvetica,sans-Serif" font-size="10.00">UserPlanTest</text>
</a>
</g>
</g>
<!-- Node0&#45;&gt;Node9 -->
<g id="edge9_Node000000_Node000009" class="edge">
<title>Node0&#45;&gt;Node9</title>
<g id="a_edge9_Node000000_Node000009"><a xlink:title=" ">
<path fill="none" stroke="#63b8ff" d="M63.06,-240.79C75.82,-233.55 91.4,-225.26 106,-219 113.29,-215.87 121.28,-212.97 128.94,-210.41"/>
<polygon fill="#63b8ff" stroke="#63b8ff" points="61.31,-237.76 54.41,-245.8 64.82,-243.82 61.31,-237.76"/>
</a>
</g>
</g>
<!-- Node10 -->
<g id="Node000010" class="node">
<title>Node10</title>
<g id="a_Node000010"><a xlink:href="class_user_record_test.html" target="_top" xlink:title=" ">
<polygon fill="white" stroke="#666666" points="208.62,-172 122.88,-172 122.88,-152 208.62,-152 208.62,-172"/>
<text text-anchor="middle" x="165.75" y="-158.5" font-family="Helvetica,sans-Serif" font-size="10.00">UserRecordTest</text>
</a>
</g>
</g>
<!-- Node0&#45;&gt;Node10 -->
<g id="edge10_Node000000_Node000010" class="edge">
<title>Node0&#45;&gt;Node10</title>
<g id="a_edge10_Node000000_Node000010"><a xlink:title=" ">
<path fill="none" stroke="#63b8ff" d="M49.45,-237.45C62.18,-220.32 82.77,-195.88 106,-181 111.24,-177.65 117.11,-174.84 123.08,-172.5"/>
<polygon fill="#63b8ff" stroke="#63b8ff" points="46.77,-235.18 43.78,-245.34 52.46,-239.26 46.77,-235.18"/>
</a>
</g>
</g>
<!-- Node11 -->
<g id="Node000011" class="node">
<title>Node11</title>
<g id="a_Node000011"><a xlink:href="class_venue_test.html" target="_top" xlink:title=" ">
<polygon fill="white" stroke="#666666" points="197,-134 134.5,-134 134.5,-114 197,-114 197,-134"/>
<text text-anchor="middle" x="165.75" y="-120.5" font-family="Helvetica,sans-Serif" font-size="10.00">VenueTest</text>
</a>
</g>
</g>
<!-- Node0&#45;&gt;Node11 -->
<g id="edge11_Node000000_Node000011" class="edge">
<title>Node0&#45;&gt;Node11</title>
<g id="a_edge11_Node000000_Node000011"><a xlink:title=" ">
<path fill="none" stroke="#63b8ff" d="M43.56,-236.12C53.85,-210.56 74.64,-167.67 106,-143 114.09,-136.64 124.37,-132.38 134.07,-129.53"/>
<polygon fill="#63b8ff" stroke="#63b8ff" points="40.31,-234.81 40,-245.4 46.85,-237.31 40.31,-234.81"/>
</a>
</g>
</g>
<!-- Node12 -->
<g id="Node000012" class="node">
<title>Node12</title>
<g id="a_Node000012"><a xlink:href="class_write_user_info_to_file_test.html" target="_top" xlink:title=" ">
<polygon fill="white" stroke="#666666" points="225.5,-96 106,-96 106,-76 225.5,-76 225.5,-96"/>
<text text-anchor="middle" x="165.75" y="-82.5" font-family="Helvetica,sans-Serif" font-size="10.00">WriteUserInfoToFileTest</text>
</a>
</g>
</g>
<!-- Node0&#45;&gt;Node12 -->
<g id="edge12_Node000000_Node000012" class="edge">
<title>Node0&#45;&gt;Node12</title>
<g id="a_edge12_Node000000_Node000012"><a xlink:title=" ">
<path fill="none" stroke="#63b8ff" d="M40.06,-235.88C47.44,-203.18 66.12,-140.4 106,-105 109.85,-101.58 114.32,-98.78 119.04,-96.48"/>
<polygon fill="#63b8ff" stroke="#63b8ff" points="36.71,-234.83 38.08,-245.33 43.56,-236.26 36.71,-234.83"/>
</a>
</g>
</g>
<!-- Node13 -->
<g id="Node000013" class="node">
<title>Node13</title>
<g id="a_Node000013"><a xlink:href="classattendees_login_test.html" target="_top" xlink:title=" ">
<polygon fill="white" stroke="#666666" points="216.12,-58 115.38,-58 115.38,-38 216.12,-38 216.12,-58"/>
<text text-anchor="middle" x="165.75" y="-44.5" font-family="Helvetica,sans-Serif" font-size="10.00">attendeesLoginTest</text>
</a>
</g>
</g>
<!-- Node0&#45;&gt;Node13 -->
<g id="edge13_Node000000_Node000013" class="edge">
<title>Node0&#45;&gt;Node13</title>
<g id="a_edge13_Node000000_Node000013"><a xlink:title=" ">
<path fill="none" stroke="#63b8ff" d="M37.89,-235.4C42.46,-196.28 57.61,-113.49 106,-67 109.56,-63.58 113.73,-60.78 118.19,-58.48"/>
<polygon fill="#63b8ff" stroke="#63b8ff" points="34.43,-234.85 36.88,-245.16 41.39,-235.57 34.43,-234.85"/>
</a>
</g>
</g>
<!-- Node14 -->
<g id="Node000014" class="node">
<title>Node14</title>
<g id="a_Node000014"><a xlink:href="classuser_authentication_test.html" target="_top" xlink:title=" ">
<polygon fill="white" stroke="#666666" points="223.62,-20 107.88,-20 107.88,0 223.62,0 223.62,-20"/>
<text text-anchor="middle" x="165.75" y="-6.5" font-family="Helvetica,sans-Serif" font-size="10.00">userAuthenticationTest</text>
</a>
</g>
</g>
<!-- Node0&#45;&gt;Node14 -->
<g id="edge14_Node000000_Node000014" class="edge">
<title>Node0&#45;&gt;Node14</title>
<g id="a_edge14_Node000000_Node000014"><a xlink:title=" ">
<path fill="none" stroke="#63b8ff" d="M36.33,-235.23C38.2,-190.37 48.87,-86.99 106,-29 109.39,-25.56 113.4,-22.75 117.71,-20.44"/>
<polygon fill="#63b8ff" stroke="#63b8ff" points="32.83,-235.1 36.04,-245.19 39.83,-235.3 32.83,-235.1"/>
</a>
</g>
</g>
</g>
</svg>
