<?xml version="1.0" encoding="UTF-8" standalone="no"?>
<!DOCTYPE svg PUBLIC "-//W3C//DTD SVG 1.1//EN"
 "http://www.w3.org/Graphics/SVG/1.1/DTD/svg11.dtd">
<!-- Generated by graphviz version 9.0.0 (20230911.1827)
 -->
<!-- Title: Graphical Class Hierarchy Pages: 1 -->
<svg width="234pt" height="180pt"
 viewBox="0.00 0.00 233.50 180.00" xmlns="http://www.w3.org/2000/svg" xmlns:xlink="http://www.w3.org/1999/xlink">
<g id="graph0" class="graph" transform="scale(1 1) rotate(0) translate(4 176)">
<title>Graphical Class Hierarchy</title>
<!-- Node0 -->
<g id="Node000000" class="node">
<title>Node0</title>
<g id="a_Node000000"><a xlink:title=" ">
<polygon fill="#e0e0e0" stroke="#999999" points="70,-96 0,-96 0,-76 70,-76 70,-96"/>
<text text-anchor="middle" x="35" y="-82.5" font-family="Helvetica,sans-Serif" font-size="10.00">testing::Test</text>
</a>
</g>
</g>
<!-- Node1 -->
<g id="Node000001" class="node">
<title>Node1</title>
<g id="a_Node000001"><a xlink:href="class_authenticate_login_test.html" target="_top" xlink:title=" ">
<polygon fill="white" stroke="#666666" points="222.12,-172 109.38,-172 109.38,-152 222.12,-152 222.12,-172"/>
<text text-anchor="middle" x="165.75" y="-158.5" font-family="Helvetica,sans-Serif" font-size="10.00">AuthenticateLoginTest</text>
</a>
</g>
</g>
<!-- Node0&#45;&gt;Node1 -->
<g id="edge1_Node000000_Node000001" class="edge">
<title>Node0&#45;&gt;Node1</title>
<g id="a_edge1_Node000000_Node000001"><a xlink:title=" ">
<path fill="none" stroke="#63b8ff" d="M54.29,-104.11C67.67,-116.51 86.76,-132.54 106,-143 112.12,-146.33 118.92,-149.19 125.66,-151.61"/>
<polygon fill="#63b8ff" stroke="#63b8ff" points="56.76,-101.63 47.11,-97.27 51.93,-106.7 56.76,-101.63"/>
</a>
</g>
</g>
<!-- Node2 -->
<g id="Node000002" class="node">
<title>Node2</title>
<g id="a_Node000002"><a xlink:href="class_user_choice_test.html" target="_top" xlink:title=" ">
<polygon fill="white" stroke="#666666" points="208.25,-134 123.25,-134 123.25,-114 208.25,-114 208.25,-134"/>
<text text-anchor="middle" x="165.75" y="-120.5" font-family="Helvetica,sans-Serif" font-size="10.00">UserChoiceTest</text>
</a>
</g>
</g>
<!-- Node0&#45;&gt;Node2 -->
<g id="edge2_Node000000_Node000002" class="edge">
<title>Node0&#45;&gt;Node2</title>
<g id="a_edge2_Node000000_Node000002"><a xlink:title=" ">
<path fill="none" stroke="#63b8ff" d="M80.86,-99.24C96.8,-103.95 114.51,-109.17 129.53,-113.6"/>
<polygon fill="#63b8ff" stroke="#63b8ff" points="82.2,-95.99 71.62,-96.51 80.22,-102.7 82.2,-95.99"/>
</a>
</g>
</g>
<!-- Node3 -->
<g id="Node000003" class="node">
<title>Node3</title>
<g id="a_Node000003"><a xlink:href="class_user_record_test.html" target="_top" xlink:title=" ">
<polygon fill="white" stroke="#666666" points="208.62,-96 122.88,-96 122.88,-76 208.62,-76 208.62,-96"/>
<text text-anchor="middle" x="165.75" y="-82.5" font-family="Helvetica,sans-Serif" font-size="10.00">UserRecordTest</text>
</a>
</g>
</g>
<!-- Node0&#45;&gt;Node3 -->
<g id="edge3_Node000000_Node000003" class="edge">
<title>Node0&#45;&gt;Node3</title>
<g id="a_edge3_Node000000_Node000003"><a xlink:title=" ">
<path fill="none" stroke="#63b8ff" d="M81.54,-86C94.9,-86 109.45,-86 122.6,-86"/>
<polygon fill="#63b8ff" stroke="#63b8ff" points="81.68,-82.5 71.68,-86 81.68,-89.5 81.68,-82.5"/>
</a>
</g>
</g>
<!-- Node4 -->
<g id="Node000004" class="node">
<title>Node4</title>
<g id="a_Node000004"><a xlink:href="class_write_user_info_to_file_test.html" target="_top" xlink:title=" ">
<polygon fill="white" stroke="#666666" points="225.5,-58 106,-58 106,-38 225.5,-38 225.5,-58"/>
<text text-anchor="middle" x="165.75" y="-44.5" font-family="Helvetica,sans-Serif" font-size="10.00">WriteUserInfoToFileTest</text>
</a>
</g>
</g>
<!-- Node0&#45;&gt;Node4 -->
<g id="edge4_Node000000_Node000004" class="edge">
<title>Node0&#45;&gt;Node4</title>
<g id="a_edge4_Node000000_Node000004"><a xlink:title=" ">
<path fill="none" stroke="#63b8ff" d="M80.86,-72.76C96.8,-68.05 114.51,-62.83 129.53,-58.4"/>
<polygon fill="#63b8ff" stroke="#63b8ff" points="80.22,-69.3 71.62,-75.49 82.2,-76.01 80.22,-69.3"/>
</a>
</g>
</g>
<!-- Node5 -->
<g id="Node000005" class="node">
<title>Node5</title>
<g id="a_Node000005"><a xlink:href="classattendees_login_test.html" target="_top" xlink:title=" ">
<polygon fill="white" stroke="#666666" points="216.12,-20 115.38,-20 115.38,0 216.12,0 216.12,-20"/>
<text text-anchor="middle" x="165.75" y="-6.5" font-family="Helvetica,sans-Serif" font-size="10.00">attendeesLoginTest</text>
</a>
</g>
</g>
<!-- Node0&#45;&gt;Node5 -->
<g id="edge5_Node000000_Node000005" class="edge">
<title>Node0&#45;&gt;Node5</title>
<g id="a_edge5_Node000000_Node000005"><a xlink:title=" ">
<path fill="none" stroke="#63b8ff" d="M54.29,-67.89C67.67,-55.49 86.76,-39.46 106,-29 112.12,-25.67 118.92,-22.81 125.66,-20.39"/>
<polygon fill="#63b8ff" stroke="#63b8ff" points="51.93,-65.3 47.11,-74.73 56.76,-70.37 51.93,-65.3"/>
</a>
</g>
</g>
</g>
</svg>
