<?xml version="1.0" encoding="UTF-8" standalone="no"?>
<!DOCTYPE svg PUBLIC "-//W3C//DTD SVG 1.1//EN"
 "http://www.w3.org/Graphics/SVG/1.1/DTD/svg11.dtd">
<!-- Generated by graphviz version 9.0.0 (20230911.1827)
 -->
<!-- Title: src/eventapp/src/eventapp.cpp Pages: 1 -->
<svg width="395pt" height="220pt"
 viewBox="0.00 0.00 395.25 220.00" xmlns="http://www.w3.org/2000/svg" xmlns:xlink="http://www.w3.org/1999/xlink">

<svg id="main" version="1.1" xmlns="http://www.w3.org/2000/svg" xmlns:xlink="http://www.w3.org/1999/xlink" xml:space="preserve" onload="init(evt)">
<style type="text/css"><![CDATA[
.node, .edge {opacity: 0.7;}
.node.selected, .edge.selected {opacity: 1;}
.edge:hover path { stroke: red; }
.edge:hover polygon { stroke: red; fill: red; }
]]></style>
<script type="application/ecmascript" xlink:href="svg.min.js"/>
<svg id="graph" class="graph">
<g id="graph0" class="graph" transform="scale(1 1) rotate(0) translate(4 216)">
<title>src/eventapp/src/eventapp.cpp</title>
<!-- Node1 -->
<g id="Node000001" class="node">
<title>Node1</title>
<g id="a_Node000001"><a xlink:title="A simple program to demonstrate the usage of the event model class.">
<polygon fill="#999999" stroke="#666666" points="255.38,-212 108.12,-212 108.12,-192 255.38,-192 255.38,-212"/>
<text text-anchor="middle" x="181.75" y="-198.5" font-family="Helvetica,sans-Serif" font-size="10.00">src/eventapp/src/eventapp.cpp</text>
</a>
</g>
</g>
<!-- Node2 -->
<g id="Node000002" class="node">
<title>Node2</title>
<g id="a_Node000002"><a xlink:title=" ">
<polygon fill="#e0e0e0" stroke="#999999" points="53.5,-150 0,-150 0,-130 53.5,-130 53.5,-150"/>
<text text-anchor="middle" x="26.75" y="-136.5" font-family="Helvetica,sans-Serif" font-size="10.00">iostream</text>
</a>
</g>
</g>
<!-- Node1&#45;&gt;Node2 -->
<g id="edge1_Node000001_Node000002" class="edge">
<title>Node1&#45;&gt;Node2</title>
<g id="a_edge1_Node000001_Node000002"><a xlink:title=" ">
<path fill="none" stroke="#63b8ff" d="M156.12,-191.59C131.96,-182.65 94.77,-168.72 62.75,-156 61.79,-155.62 60.81,-155.23 59.82,-154.83"/>
<polygon fill="#63b8ff" stroke="#63b8ff" points="61.15,-151.59 50.57,-151.05 58.51,-158.07 61.15,-151.59"/>
</a>
</g>
</g>
<!-- Node3 -->
<g id="Node000003" class="node">
<title>Node3</title>
<g id="a_Node000003"><a xlink:title=" ">
<polygon fill="#e0e0e0" stroke="#999999" points="111.75,-150 71.75,-150 71.75,-130 111.75,-130 111.75,-150"/>
<text text-anchor="middle" x="91.75" y="-136.5" font-family="Helvetica,sans-Serif" font-size="10.00">stack</text>
</a>
</g>
</g>
<!-- Node1&#45;&gt;Node3 -->
<g id="edge2_Node000001_Node000003" class="edge">
<title>Node1&#45;&gt;Node3</title>
<g id="a_edge2_Node000001_Node000003"><a xlink:title=" ">
<path fill="none" stroke="#63b8ff" d="M167.69,-191.62C153.55,-182.2 131.53,-167.52 114.83,-156.39"/>
<polygon fill="#63b8ff" stroke="#63b8ff" points="117.24,-153.78 106.97,-151.15 113.35,-159.61 117.24,-153.78"/>
</a>
</g>
</g>
<!-- Node4 -->
<g id="Node000004" class="node">
<title>Node4</title>
<g id="a_Node000004"><a xlink:title=" ">
<polygon fill="#e0e0e0" stroke="#999999" points="169.75,-150 129.75,-150 129.75,-130 169.75,-130 169.75,-150"/>
<text text-anchor="middle" x="149.75" y="-136.5" font-family="Helvetica,sans-Serif" font-size="10.00">string</text>
</a>
</g>
</g>
<!-- Node1&#45;&gt;Node4 -->
<g id="edge3_Node000001_Node000004" class="edge">
<title>Node1&#45;&gt;Node4</title>
<g id="a_edge3_Node000001_Node000004"><a xlink:title=" ">
<path fill="none" stroke="#63b8ff" d="M176.75,-191.62C172.26,-183.21 165.54,-170.6 159.92,-160.07"/>
<polygon fill="#63b8ff" stroke="#63b8ff" points="163.12,-158.62 155.32,-151.45 156.94,-161.92 163.12,-158.62"/>
</a>
</g>
</g>
<!-- Node5 -->
<g id="Node000005" class="node">
<title>Node5</title>
<g id="a_Node000005"><a xlink:title=" ">
<polygon fill="#e0e0e0" stroke="#999999" points="239.38,-150 188.12,-150 188.12,-130 239.38,-130 239.38,-150"/>
<text text-anchor="middle" x="213.75" y="-136.5" font-family="Helvetica,sans-Serif" font-size="10.00">sstream</text>
</a>
</g>
</g>
<!-- Node1&#45;&gt;Node5 -->
<g id="edge4_Node000001_Node000005" class="edge">
<title>Node1&#45;&gt;Node5</title>
<g id="a_edge4_Node000001_Node000005"><a xlink:title=" ">
<path fill="none" stroke="#63b8ff" d="M186.75,-191.62C191.24,-183.21 197.96,-170.6 203.58,-160.07"/>
<polygon fill="#63b8ff" stroke="#63b8ff" points="206.56,-161.92 208.18,-151.45 200.38,-158.62 206.56,-161.92"/>
</a>
</g>
</g>
<!-- Node6 -->
<g id="Node000006" class="node">
<title>Node6</title>
<g id="a_Node000006"><a xlink:title=" ">
<polygon fill="#e0e0e0" stroke="#999999" points="334.12,-20 275.38,-20 275.38,0 334.12,0 334.12,-20"/>
<text text-anchor="middle" x="304.75" y="-6.5" font-family="Helvetica,sans-Serif" font-size="10.00">stdexcept</text>
</a>
</g>
</g>
<!-- Node1&#45;&gt;Node6 -->
<g id="edge5_Node000001_Node000006" class="edge">
<title>Node1&#45;&gt;Node6</title>
<g id="a_edge5_Node000001_Node000006"><a xlink:title=" ">
<path fill="none" stroke="#63b8ff" d="M202.08,-191.59C216.8,-183.86 236.25,-171.66 248.75,-156 250.81,-153.42 282.46,-70.01 297.25,-30.89"/>
<polygon fill="#63b8ff" stroke="#63b8ff" points="300.45,-32.31 300.71,-21.72 293.9,-29.84 300.45,-32.31"/>
</a>
</g>
</g>
<!-- Node7 -->
<g id="Node000007" class="node">
<title>Node7</title>
<g id="a_Node000007"><a xlink:href="event_8h.html" target="_top" xlink:title="Provides functions for math. utilities.">
<polygon fill="white" stroke="#666666" points="385.12,-156 296.38,-156 296.38,-124 385.12,-124 385.12,-156"/>
<text text-anchor="start" x="304.38" y="-142.5" font-family="Helvetica,sans-Serif" font-size="10.00">../../event/header</text>
<text text-anchor="middle" x="340.75" y="-130.5" font-family="Helvetica,sans-Serif" font-size="10.00">/event.h</text>
</a>
</g>
</g>
<!-- Node1&#45;&gt;Node7 -->
<g id="edge6_Node000001_Node000007" class="edge">
<title>Node1&#45;&gt;Node7</title>
<g id="a_edge6_Node000001_Node000007"><a xlink:title=" ">
<path fill="none" stroke="#63b8ff" d="M206.59,-191.62C228.57,-183.33 261.34,-170.96 289,-160.53"/>
<polygon fill="#63b8ff" stroke="#63b8ff" points="290.16,-163.83 298.28,-157.02 287.69,-157.28 290.16,-163.83"/>
</a>
</g>
</g>
<!-- Node8 -->
<g id="Node000008" class="node">
<title>Node8</title>
<g id="a_Node000008"><a xlink:href="common_types_8h.html" target="_top" xlink:title="Provides cross&#45;platform type definitions.">
<polygon fill="white" stroke="#666666" points="387.25,-88 296.25,-88 296.25,-56 387.25,-56 387.25,-88"/>
<text text-anchor="start" x="304.25" y="-74.5" font-family="Helvetica,sans-Serif" font-size="10.00">../../utility/header</text>
<text text-anchor="middle" x="341.75" y="-62.5" font-family="Helvetica,sans-Serif" font-size="10.00">/commonTypes.h</text>
</a>
</g>
</g>
<!-- Node7&#45;&gt;Node8 -->
<g id="edge7_Node000007_Node000008" class="edge">
<title>Node7&#45;&gt;Node8</title>
<g id="a_edge7_Node000007_Node000008"><a xlink:title=" ">
<path fill="none" stroke="#63b8ff" d="M340.98,-123.69C341.09,-116.53 341.22,-107.79 341.35,-99.59"/>
<polygon fill="#63b8ff" stroke="#63b8ff" points="344.84,-99.79 341.5,-89.74 337.85,-99.68 344.84,-99.79"/>
</a>
</g>
</g>
<!-- Node8&#45;&gt;Node6 -->
<g id="edge8_Node000008_Node000006" class="edge">
<title>Node8&#45;&gt;Node6</title>
<g id="a_edge8_Node000008_Node000006"><a xlink:title=" ">
<path fill="none" stroke="#63b8ff" d="M332.22,-55.55C327.4,-47.74 321.52,-38.19 316.43,-29.94"/>
<polygon fill="#63b8ff" stroke="#63b8ff" points="319.57,-28.37 311.35,-21.7 313.62,-32.05 319.57,-28.37"/>
</a>
</g>
</g>
</g>
</svg>
</svg>

<style type='text/css'>
<![CDATA[
[data-mouse-over-selected='false'] { opacity: 0.7; }
[data-mouse-over-selected='true']  { opacity: 1.0; }
]]>
</style>
<script type="application/ecmascript"><![CDATA[
document.addEventListener('DOMContentLoaded', (event) => {
  highlightEdges();
  highlightAdjacentNodes();
});
]]></script>
</svg>
