<?xml version="1.0" encoding="UTF-8" standalone="no"?>
<!DOCTYPE svg PUBLIC "-//W3C//DTD SVG 1.1//EN"
 "http://www.w3.org/Graphics/SVG/1.1/DTD/svg11.dtd">
<!-- Generated by graphviz version 9.0.0 (20230911.1827)
 -->
<!-- Title: src/eventapp/src/eventapp.cpp Pages: 1 -->
<svg width="464pt" height="276pt"
 viewBox="0.00 0.00 464.10 276.00" xmlns="http://www.w3.org/2000/svg" xmlns:xlink="http://www.w3.org/1999/xlink">

<svg id="main" version="1.1" xmlns="http://www.w3.org/2000/svg" xmlns:xlink="http://www.w3.org/1999/xlink" xml:space="preserve" onload="init(evt)">
<style type="text/css"><![CDATA[
.node, .edge {opacity: 0.7;}
.node.selected, .edge.selected {opacity: 1;}
.edge:hover path { stroke: red; }
.edge:hover polygon { stroke: red; fill: red; }
]]></style>
<script type="application/ecmascript" xlink:href="svg.min.js"/>
<svg id="graph" class="graph">
<g id="graph0" class="graph" transform="scale(1 1) rotate(0) translate(4 272)">
<title>src/eventapp/src/eventapp.cpp</title>
<!-- Node1 -->
<g id="Node000001" class="node">
<title>Node1</title>
<g id="a_Node000001"><a xlink:title=" ">
<polygon fill="#999999" stroke="#666666" points="291.6,-268 144.35,-268 144.35,-248 291.6,-248 291.6,-268"/>
<text text-anchor="middle" x="217.98" y="-254.5" font-family="Helvetica,sans-Serif" font-size="10.00">src/eventapp/src/eventapp.cpp</text>
</a>
</g>
</g>
<!-- Node2 -->
<g id="Node000002" class="node">
<title>Node2</title>
<g id="a_Node000002"><a xlink:title=" ">
<polygon fill="#e0e0e0" stroke="#999999" points="70.73,-150 17.23,-150 17.23,-130 70.73,-130 70.73,-150"/>
<text text-anchor="middle" x="43.98" y="-136.5" font-family="Helvetica,sans-Serif" font-size="10.00">iostream</text>
</a>
</g>
</g>
<!-- Node1&#45;&gt;Node2 -->
<g id="edge1_Node000001_Node000002" class="edge">
<title>Node1&#45;&gt;Node2</title>
<g id="a_edge1_Node000001_Node000002"><a xlink:title=" ">
<path fill="none" stroke="#63b8ff" d="M144.24,-247.7C100.96,-240.55 52.23,-228.99 38.98,-212 27.83,-197.71 31.1,-176.5 35.92,-160.98"/>
<polygon fill="#63b8ff" stroke="#63b8ff" points="39.11,-162.45 39.18,-151.86 32.52,-160.09 39.11,-162.45"/>
</a>
</g>
</g>
<!-- Node3 -->
<g id="Node000003" class="node">
<title>Node3</title>
<g id="a_Node000003"><a xlink:title=" ">
<polygon fill="#e0e0e0" stroke="#999999" points="261.98,-212 221.98,-212 221.98,-192 261.98,-192 261.98,-212"/>
<text text-anchor="middle" x="241.98" y="-198.5" font-family="Helvetica,sans-Serif" font-size="10.00">stack</text>
</a>
</g>
</g>
<!-- Node1&#45;&gt;Node3 -->
<g id="edge2_Node000001_Node000003" class="edge">
<title>Node1&#45;&gt;Node3</title>
<g id="a_edge2_Node000001_Node000003"><a xlink:title=" ">
<path fill="none" stroke="#63b8ff" d="M222.16,-247.59C225.22,-240.7 229.49,-231.1 233.28,-222.57"/>
<polygon fill="#63b8ff" stroke="#63b8ff" points="236.37,-224.24 237.23,-213.68 229.97,-221.4 236.37,-224.24"/>
</a>
</g>
</g>
<!-- Node4 -->
<g id="Node000004" class="node">
<title>Node4</title>
<g id="a_Node000004"><a xlink:title=" ">
<polygon fill="#e0e0e0" stroke="#999999" points="319.98,-212 279.98,-212 279.98,-192 319.98,-192 319.98,-212"/>
<text text-anchor="middle" x="299.98" y="-198.5" font-family="Helvetica,sans-Serif" font-size="10.00">string</text>
</a>
</g>
</g>
<!-- Node1&#45;&gt;Node4 -->
<g id="edge3_Node000001_Node000004" class="edge">
<title>Node1&#45;&gt;Node4</title>
<g id="a_edge3_Node000001_Node000004"><a xlink:title=" ">
<path fill="none" stroke="#63b8ff" d="M232.26,-247.59C244.41,-239.59 262.11,-227.93 276.37,-218.54"/>
<polygon fill="#63b8ff" stroke="#63b8ff" points="277.89,-221.73 284.32,-213.31 274.04,-215.89 277.89,-221.73"/>
</a>
</g>
</g>
<!-- Node5 -->
<g id="Node000005" class="node">
<title>Node5</title>
<g id="a_Node000005"><a xlink:title=" ">
<polygon fill="#e0e0e0" stroke="#999999" points="389.6,-212 338.35,-212 338.35,-192 389.6,-192 389.6,-212"/>
<text text-anchor="middle" x="363.98" y="-198.5" font-family="Helvetica,sans-Serif" font-size="10.00">sstream</text>
</a>
</g>
</g>
<!-- Node1&#45;&gt;Node5 -->
<g id="edge4_Node000001_Node000005" class="edge">
<title>Node1&#45;&gt;Node5</title>
<g id="a_edge4_Node000001_Node000005"><a xlink:title=" ">
<path fill="none" stroke="#63b8ff" d="M243.41,-247.59C266.71,-238.97 301.47,-226.12 327.69,-216.42"/>
<polygon fill="#63b8ff" stroke="#63b8ff" points="328.76,-219.76 336.93,-213 326.33,-213.19 328.76,-219.76"/>
</a>
</g>
</g>
<!-- Node6 -->
<g id="Node000006" class="node">
<title>Node6</title>
<g id="a_Node000006"><a xlink:title=" ">
<polygon fill="#e0e0e0" stroke="#999999" points="456.1,-212 407.85,-212 407.85,-192 456.1,-192 456.1,-212"/>
<text text-anchor="middle" x="431.98" y="-198.5" font-family="Helvetica,sans-Serif" font-size="10.00">fstream</text>
</a>
</g>
</g>
<!-- Node1&#45;&gt;Node6 -->
<g id="edge5_Node000001_Node000006" class="edge">
<title>Node1&#45;&gt;Node6</title>
<g id="a_edge5_Node000001_Node000006"><a xlink:title=" ">
<path fill="none" stroke="#63b8ff" d="M257.23,-247.51C291.57,-239.15 343.07,-226.47 396.43,-212.62"/>
<polygon fill="#63b8ff" stroke="#63b8ff" points="397.22,-216.03 406.02,-210.13 395.46,-209.26 397.22,-216.03"/>
</a>
</g>
</g>
<!-- Node7 -->
<g id="Node000007" class="node">
<title>Node7</title>
<g id="a_Node000007"><a xlink:title=" ">
<polygon fill="#e0e0e0" stroke="#999999" points="132.35,-20 73.6,-20 73.6,0 132.35,0 132.35,-20"/>
<text text-anchor="middle" x="102.98" y="-6.5" font-family="Helvetica,sans-Serif" font-size="10.00">stdexcept</text>
</a>
</g>
</g>
<!-- Node1&#45;&gt;Node7 -->
<g id="edge6_Node000001_Node000007" class="edge">
<title>Node1&#45;&gt;Node7</title>
<g id="a_edge6_Node000001_Node000007"><a xlink:title=" ">
<path fill="none" stroke="#63b8ff" d="M148.18,-247.57C101.61,-239.97 45.78,-227.94 27.98,-212 -1.91,-185.25 -5.76,-161.68 7.98,-124 22.71,-83.58 58.97,-47.58 82.19,-27.58"/>
<polygon fill="#63b8ff" stroke="#63b8ff" points="84.36,-30.33 89.79,-21.23 79.88,-24.96 84.36,-30.33"/>
</a>
</g>
</g>
<!-- Node8 -->
<g id="Node000008" class="node">
<title>Node8</title>
<g id="a_Node000008"><a xlink:href="event_8h.html" target="_top" xlink:title="Provides functions for math. utilities.">
<polygon fill="white" stroke="#666666" points="221.35,-156 132.6,-156 132.6,-124 221.35,-124 221.35,-156"/>
<text text-anchor="start" x="140.6" y="-142.5" font-family="Helvetica,sans-Serif" font-size="10.00">../../event/header</text>
<text text-anchor="middle" x="176.98" y="-130.5" font-family="Helvetica,sans-Serif" font-size="10.00">/event.h</text>
</a>
</g>
</g>
<!-- Node1&#45;&gt;Node8 -->
<g id="edge7_Node000001_Node000008" class="edge">
<title>Node1&#45;&gt;Node8</title>
<g id="a_edge7_Node000001_Node000008"><a xlink:title=" ">
<path fill="none" stroke="#63b8ff" d="M214.62,-247.51C208.48,-230.15 195.25,-192.72 186.23,-167.19"/>
<polygon fill="#63b8ff" stroke="#63b8ff" points="189.56,-166.1 182.93,-157.84 182.96,-168.44 189.56,-166.1"/>
</a>
</g>
</g>
<!-- Node10 -->
<g id="Node000010" class="node">
<title>Node10</title>
<g id="a_Node000010"><a xlink:href="event_8cpp.html" target="_top" xlink:title=" ">
<polygon fill="white" stroke="#666666" points="165.6,-212 48.35,-212 48.35,-192 165.6,-192 165.6,-212"/>
<text text-anchor="middle" x="106.98" y="-198.5" font-family="Helvetica,sans-Serif" font-size="10.00">../../event/src/event.cpp</text>
</a>
</g>
</g>
<!-- Node1&#45;&gt;Node10 -->
<g id="edge10_Node000001_Node000010" class="edge">
<title>Node1&#45;&gt;Node10</title>
<g id="a_edge10_Node000001_Node000010"><a xlink:title=" ">
<path fill="none" stroke="#63b8ff" d="M198.64,-247.59C181.56,-239.28 156.37,-227.03 136.72,-217.47"/>
<polygon fill="#63b8ff" stroke="#63b8ff" points="138.35,-214.37 127.82,-213.14 135.28,-220.66 138.35,-214.37"/>
</a>
</g>
</g>
<!-- Node9 -->
<g id="Node000009" class="node">
<title>Node9</title>
<g id="a_Node000009"><a xlink:href="common_types_8h.html" target="_top" xlink:title="Provides cross&#45;platform type definitions.">
<polygon fill="white" stroke="#666666" points="222.48,-88 131.48,-88 131.48,-56 222.48,-56 222.48,-88"/>
<text text-anchor="start" x="139.48" y="-74.5" font-family="Helvetica,sans-Serif" font-size="10.00">../../utility/header</text>
<text text-anchor="middle" x="176.98" y="-62.5" font-family="Helvetica,sans-Serif" font-size="10.00">/commonTypes.h</text>
</a>
</g>
</g>
<!-- Node8&#45;&gt;Node9 -->
<g id="edge8_Node000008_Node000009" class="edge">
<title>Node8&#45;&gt;Node9</title>
<g id="a_edge8_Node000008_Node000009"><a xlink:title=" ">
<path fill="none" stroke="#63b8ff" d="M176.98,-123.69C176.98,-116.53 176.98,-107.79 176.98,-99.59"/>
<polygon fill="#63b8ff" stroke="#63b8ff" points="180.48,-99.74 176.98,-89.74 173.48,-99.74 180.48,-99.74"/>
</a>
</g>
</g>
<!-- Node9&#45;&gt;Node7 -->
<g id="edge9_Node000009_Node000007" class="edge">
<title>Node9&#45;&gt;Node7</title>
<g id="a_edge9_Node000009_Node000007"><a xlink:title=" ">
<path fill="none" stroke="#63b8ff" d="M157.92,-55.55C147.32,-46.95 134.13,-36.26 123.33,-27.5"/>
<polygon fill="#63b8ff" stroke="#63b8ff" points="125.73,-24.94 115.75,-21.36 121.32,-30.38 125.73,-24.94"/>
</a>
</g>
</g>
<!-- Node10&#45;&gt;Node2 -->
<g id="edge13_Node000010_Node000002" class="edge">
<title>Node10&#45;&gt;Node2</title>
<g id="a_edge13_Node000010_Node000002"><a xlink:title=" ">
<path fill="none" stroke="#63b8ff" d="M97.13,-191.62C87.65,-182.59 73.08,-168.72 61.59,-157.78"/>
<polygon fill="#63b8ff" stroke="#63b8ff" points="64.3,-155.52 54.64,-151.16 59.47,-160.59 64.3,-155.52"/>
</a>
</g>
</g>
<!-- Node10&#45;&gt;Node7 -->
<g id="edge12_Node000010_Node000007" class="edge">
<title>Node10&#45;&gt;Node7</title>
<g id="a_edge12_Node000010_Node000007"><a xlink:title=" ">
<path fill="none" stroke="#63b8ff" d="M106.78,-191.58C106.16,-162.39 104.28,-72.97 103.42,-31.96"/>
<polygon fill="#63b8ff" stroke="#63b8ff" points="106.92,-31.92 103.21,-21.99 99.92,-32.06 106.92,-31.92"/>
</a>
</g>
</g>
<!-- Node10&#45;&gt;Node8 -->
<g id="edge11_Node000010_Node000008" class="edge">
<title>Node10&#45;&gt;Node8</title>
<g id="a_edge11_Node000010_Node000008"><a xlink:title=" ">
<path fill="none" stroke="#63b8ff" d="M117.91,-191.62C126.59,-184.19 139.09,-173.47 150.36,-163.81"/>
<polygon fill="#63b8ff" stroke="#63b8ff" points="152.58,-166.52 157.89,-157.36 148.02,-161.21 152.58,-166.52"/>
</a>
</g>
</g>
</g>
</svg>
</svg>

<style type='text/css'>
<![CDATA[
[data-mouse-over-selected='false'] { opacity: 0.7; }
[data-mouse-over-selected='true']  { opacity: 1.0; }
]]>
</style>
<script type="application/ecmascript"><![CDATA[
document.addEventListener('DOMContentLoaded', (event) => {
  highlightEdges();
  highlightAdjacentNodes();
});
]]></script>
</svg>
