<?xml version="1.0" encoding="UTF-8" standalone="no"?>
<!DOCTYPE svg PUBLIC "-//W3C//DTD SVG 1.1//EN"
 "http://www.w3.org/Graphics/SVG/1.1/DTD/svg11.dtd">
<!-- Generated by graphviz version 9.0.0 (20230911.1827)
 -->
<!-- Title: src/event/src/event.cpp Pages: 1 -->
<svg width="209pt" height="208pt"
 viewBox="0.00 0.00 209.25 208.00" xmlns="http://www.w3.org/2000/svg" xmlns:xlink="http://www.w3.org/1999/xlink">

<svg id="main" version="1.1" xmlns="http://www.w3.org/2000/svg" xmlns:xlink="http://www.w3.org/1999/xlink" xml:space="preserve" onload="init(evt)">
<style type="text/css"><![CDATA[
.node, .edge {opacity: 0.7;}
.node.selected, .edge.selected {opacity: 1;}
.edge:hover path { stroke: red; }
.edge:hover polygon { stroke: red; fill: red; }
]]></style>
<script type="application/ecmascript" xlink:href="svg.min.js"/>
<svg id="graph" class="graph">
<g id="graph0" class="graph" transform="scale(1 1) rotate(0) translate(4 204)">
<title>src/event/src/event.cpp</title>
<!-- Node1 -->
<g id="Node000001" class="node">
<title>Node1</title>
<g id="a_Node000001"><a xlink:title=" ">
<polygon fill="#999999" stroke="#666666" points="177.38,-200 61.62,-200 61.62,-180 177.38,-180 177.38,-200"/>
<text text-anchor="middle" x="119.5" y="-186.5" font-family="Helvetica,sans-Serif" font-size="10.00">src/event/src/event.cpp</text>
</a>
</g>
</g>
<!-- Node2 -->
<g id="Node000002" class="node">
<title>Node2</title>
<g id="a_Node000002"><a xlink:href="event_8h.html" target="_top" xlink:title="Provides functions for math. utilities.">
<polygon fill="white" stroke="#666666" points="90.5,-144 2.5,-144 2.5,-124 90.5,-124 90.5,-144"/>
<text text-anchor="middle" x="46.5" y="-130.5" font-family="Helvetica,sans-Serif" font-size="10.00">../header/event.h</text>
</a>
</g>
</g>
<!-- Node1&#45;&gt;Node2 -->
<g id="edge1_Node000001_Node000002" class="edge">
<title>Node1&#45;&gt;Node2</title>
<g id="a_edge1_Node000001_Node000002"><a xlink:title=" ">
<path fill="none" stroke="#63b8ff" d="M106.78,-179.59C96.11,-171.7 80.62,-160.24 68.02,-150.92"/>
<polygon fill="#63b8ff" stroke="#63b8ff" points="70.41,-148.33 60.29,-145.2 66.24,-153.96 70.41,-148.33"/>
</a>
</g>
</g>
<!-- Node4 -->
<g id="Node000004" class="node">
<title>Node4</title>
<g id="a_Node000004"><a xlink:title=" ">
<polygon fill="#e0e0e0" stroke="#999999" points="111.88,-20 53.12,-20 53.12,0 111.88,0 111.88,-20"/>
<text text-anchor="middle" x="82.5" y="-6.5" font-family="Helvetica,sans-Serif" font-size="10.00">stdexcept</text>
</a>
</g>
</g>
<!-- Node1&#45;&gt;Node4 -->
<g id="edge4_Node000001_Node000004" class="edge">
<title>Node1&#45;&gt;Node4</title>
<g id="a_edge4_Node000001_Node000004"><a xlink:title=" ">
<path fill="none" stroke="#63b8ff" d="M118.94,-179.82C117.46,-158.01 112.67,-101.52 100.5,-56 98.25,-47.58 94.87,-38.6 91.65,-30.9"/>
<polygon fill="#63b8ff" stroke="#63b8ff" points="94.88,-29.56 87.65,-21.82 88.47,-32.38 94.88,-29.56"/>
</a>
</g>
</g>
<!-- Node5 -->
<g id="Node000005" class="node">
<title>Node5</title>
<g id="a_Node000005"><a xlink:title=" ">
<polygon fill="#e0e0e0" stroke="#999999" points="201.25,-144 147.75,-144 147.75,-124 201.25,-124 201.25,-144"/>
<text text-anchor="middle" x="174.5" y="-130.5" font-family="Helvetica,sans-Serif" font-size="10.00">iostream</text>
</a>
</g>
</g>
<!-- Node1&#45;&gt;Node5 -->
<g id="edge5_Node000001_Node000005" class="edge">
<title>Node1&#45;&gt;Node5</title>
<g id="a_edge5_Node000001_Node000005"><a xlink:title=" ">
<path fill="none" stroke="#63b8ff" d="M129.08,-179.59C136.73,-172.08 147.66,-161.35 156.88,-152.3"/>
<polygon fill="#63b8ff" stroke="#63b8ff" points="159.27,-154.86 163.95,-145.36 154.36,-149.87 159.27,-154.86"/>
</a>
</g>
</g>
<!-- Node3 -->
<g id="Node000003" class="node">
<title>Node3</title>
<g id="a_Node000003"><a xlink:href="common_types_8h.html" target="_top" xlink:title="Provides cross&#45;platform type definitions.">
<polygon fill="white" stroke="#666666" points="91,-88 0,-88 0,-56 91,-56 91,-88"/>
<text text-anchor="start" x="8" y="-74.5" font-family="Helvetica,sans-Serif" font-size="10.00">../../utility/header</text>
<text text-anchor="middle" x="45.5" y="-62.5" font-family="Helvetica,sans-Serif" font-size="10.00">/commonTypes.h</text>
</a>
</g>
</g>
<!-- Node2&#45;&gt;Node3 -->
<g id="edge2_Node000002_Node000003" class="edge">
<title>Node2&#45;&gt;Node3</title>
<g id="a_edge2_Node000002_Node000003"><a xlink:title=" ">
<path fill="none" stroke="#63b8ff" d="M46.34,-123.62C46.23,-117.1 46.08,-108.05 45.94,-99.4"/>
<polygon fill="#63b8ff" stroke="#63b8ff" points="49.44,-99.59 45.78,-89.65 42.44,-99.71 49.44,-99.59"/>
</a>
</g>
</g>
<!-- Node3&#45;&gt;Node4 -->
<g id="edge3_Node000003_Node000004" class="edge">
<title>Node3&#45;&gt;Node4</title>
<g id="a_edge3_Node000003_Node000004"><a xlink:title=" ">
<path fill="none" stroke="#63b8ff" d="M55.03,-55.55C59.85,-47.74 65.73,-38.19 70.82,-29.94"/>
<polygon fill="#63b8ff" stroke="#63b8ff" points="73.63,-32.05 75.9,-21.7 67.68,-28.37 73.63,-32.05"/>
</a>
</g>
</g>
</g>
</svg>
</svg>

<style type='text/css'>
<![CDATA[
[data-mouse-over-selected='false'] { opacity: 0.7; }
[data-mouse-over-selected='true']  { opacity: 1.0; }
]]>
</style>
<script type="application/ecmascript"><![CDATA[
document.addEventListener('DOMContentLoaded', (event) => {
  highlightEdges();
  highlightAdjacentNodes();
});
]]></script>
</svg>
