<?xml version="1.0" encoding="UTF-8" standalone="no"?>
<!DOCTYPE svg PUBLIC "-//W3C//DTD SVG 1.1//EN"
 "http://www.w3.org/Graphics/SVG/1.1/DTD/svg11.dtd">
<!-- Generated by graphviz version 9.0.0 (20230911.1827)
 -->
<!-- Title: src/utility/header/commonTypes.h Pages: 1 -->
<svg width="276pt" height="220pt"
 viewBox="0.00 0.00 275.88 220.00" xmlns="http://www.w3.org/2000/svg" xmlns:xlink="http://www.w3.org/1999/xlink">
<g id="graph0" class="graph" transform="scale(1 1) rotate(0) translate(4 216)">
<title>src/utility/header/commonTypes.h</title>
<!-- Node1 -->
<g id="Node000001" class="node">
<title>Node1</title>
<g id="a_Node000001"><a xlink:title="Provides cross&#45;platform type definitions.">
<polygon fill="#999999" stroke="#666666" points="207.38,-212 116.38,-212 116.38,-180 207.38,-180 207.38,-212"/>
<text text-anchor="start" x="124.38" y="-198.5" font-family="Helvetica,sans-Serif" font-size="10.00">src/utility/header</text>
<text text-anchor="middle" x="161.88" y="-186.5" font-family="Helvetica,sans-Serif" font-size="10.00">/commonTypes.h</text>
</a>
</g>
</g>
<!-- Node2 -->
<g id="Node000002" class="node">
<title>Node2</title>
<g id="a_Node000002"><a xlink:href="$event_8h.html" xlink:title="Provides functions for math. utilities.">
<polygon fill="white" stroke="#666666" points="161.38,-138 40.38,-138 40.38,-118 161.38,-118 161.38,-138"/>
<text text-anchor="middle" x="100.88" y="-124.5" font-family="Helvetica,sans-Serif" font-size="10.00">src/event/header/event.h</text>
</a>
</g>
</g>
<!-- Node1&#45;&gt;Node2 -->
<g id="edge11_Node000001_Node000002" class="edge">
<title>Node1&#45;&gt;Node2</title>
<g id="a_edge11_Node000001_Node000002"><a xlink:title=" ">
<path fill="none" stroke="#63b8ff" d="M140.04,-171.37C129.48,-159.95 117.4,-146.88 109.49,-138.32"/>
<polygon fill="#63b8ff" stroke="#63b8ff" points="137.34,-173.61 146.7,-178.58 142.48,-168.86 137.34,-173.61"/>
</a>
</g>
</g>
<!-- Node5 -->
<g id="Node000005" class="node">
<title>Node5</title>
<g id="a_Node000005"><a xlink:href="$math_utility_8h.html" xlink:title="Provides functions for math. utilities.">
<polygon fill="white" stroke="#666666" points="267.88,-144 179.88,-144 179.88,-112 267.88,-112 267.88,-144"/>
<text text-anchor="start" x="187.88" y="-130.5" font-family="Helvetica,sans-Serif" font-size="10.00">src/utility/header</text>
<text text-anchor="middle" x="223.88" y="-118.5" font-family="Helvetica,sans-Serif" font-size="10.00">/mathUtility.h</text>
</a>
</g>
</g>
<!-- Node1&#45;&gt;Node5 -->
<g id="edge15_Node000001_Node000005" class="edge">
<title>Node1&#45;&gt;Node5</title>
<g id="a_edge15_Node000001_Node000005"><a xlink:title=" ">
<path fill="none" stroke="#63b8ff" d="M184.02,-171.43C192.52,-162.38 202,-152.29 209.57,-144.22"/>
<polygon fill="#63b8ff" stroke="#63b8ff" points="181.59,-168.9 177.29,-178.59 186.69,-173.7 181.59,-168.9"/>
</a>
</g>
</g>
<!-- Node3 -->
<g id="Node000003" class="node">
<title>Node3</title>
<g id="a_Node000003"><a xlink:href="$event_8cpp.html" xlink:title=" ">
<polygon fill="white" stroke="#666666" points="115.75,-76 0,-76 0,-56 115.75,-56 115.75,-76"/>
<text text-anchor="middle" x="57.88" y="-62.5" font-family="Helvetica,sans-Serif" font-size="10.00">src/event/src/event.cpp</text>
</a>
</g>
</g>
<!-- Node2&#45;&gt;Node3 -->
<g id="edge12_Node000002_Node000003" class="edge">
<title>Node2&#45;&gt;Node3</title>
<g id="a_edge12_Node000002_Node000003"><a xlink:title=" ">
<path fill="none" stroke="#63b8ff" d="M87.69,-108.6C79.97,-97.83 70.56,-84.7 64.41,-76.11"/>
<polygon fill="#63b8ff" stroke="#63b8ff" points="84.6,-110.31 93.27,-116.39 90.29,-106.23 84.6,-110.31"/>
</a>
</g>
</g>
<!-- Node4 -->
<g id="Node000004" class="node">
<title>Node4</title>
<g id="a_Node000004"><a xlink:href="$eventapp_8cpp.html" xlink:title=" ">
<polygon fill="white" stroke="#666666" points="174.5,-20 27.25,-20 27.25,0 174.5,0 174.5,-20"/>
<text text-anchor="middle" x="100.88" y="-6.5" font-family="Helvetica,sans-Serif" font-size="10.00">src/eventapp/src/eventapp.cpp</text>
</a>
</g>
</g>
<!-- Node2&#45;&gt;Node4 -->
<g id="edge14_Node000002_Node000004" class="edge">
<title>Node2&#45;&gt;Node4</title>
<g id="a_edge14_Node000002_Node000004"><a xlink:title=" ">
<path fill="none" stroke="#63b8ff" d="M113.61,-107.92C121.5,-93.77 129.35,-73.91 124.88,-56 121.57,-42.77 113.55,-29.17 107.69,-20.44"/>
<polygon fill="#63b8ff" stroke="#63b8ff" points="110.77,-105.85 108.55,-116.21 116.75,-109.49 110.77,-105.85"/>
</a>
</g>
</g>
<!-- Node3&#45;&gt;Node4 -->
<g id="edge13_Node000003_Node000004" class="edge">
<title>Node3&#45;&gt;Node4</title>
<g id="a_edge13_Node000003_Node000004"><a xlink:title=" ">
<path fill="none" stroke="#63b8ff" d="M72.43,-46.72C79.5,-37.84 87.7,-27.55 93.47,-20.3"/>
<polygon fill="#63b8ff" stroke="#63b8ff" points="69.8,-44.41 66.31,-54.41 75.28,-48.77 69.8,-44.41"/>
</a>
</g>
</g>
</g>
</svg>
