<?xml version="1.0" encoding="UTF-8" standalone="no"?>
<!DOCTYPE svg PUBLIC "-//W3C//DTD SVG 1.1//EN"
 "http://www.w3.org/Graphics/SVG/1.1/DTD/svg11.dtd">
<!-- Generated by graphviz version 9.0.0 (20230911.1827)
 -->
<!-- Title: C:/Users/Vıctus/Desktop/ce103&#45;final/ce103&#45;final&#45;beyza&#45;aydin&#45;gokcenur&#45;haymana&#45;cpp/src/utility/header/commonTypes.h Pages: 1 -->
<svg width="403pt" height="340pt"
 viewBox="0.00 0.00 403.25 340.00" xmlns="http://www.w3.org/2000/svg" xmlns:xlink="http://www.w3.org/1999/xlink">
<g id="graph0" class="graph" transform="scale(1 1) rotate(0) translate(4 336)">
<title>C:/Users/Vıctus/Desktop/ce103&#45;final/ce103&#45;final&#45;beyza&#45;aydin&#45;gokcenur&#45;haymana&#45;cpp/src/utility/header/commonTypes.h</title>
<!-- Node1 -->
<g id="Node000001" class="node">
<title>Node1</title>
<g id="a_Node000001"><a xlink:title="Provides cross&#45;platform type definitions.">
<polygon fill="#999999" stroke="#666666" points="313.88,-332 129.12,-332 129.12,-276 313.88,-276 313.88,-332"/>
<text text-anchor="start" x="137.12" y="-318.5" font-family="Helvetica,sans-Serif" font-size="10.00">C:/Users/Vıctus/Desktop</text>
<text text-anchor="start" x="137.12" y="-306.5" font-family="Helvetica,sans-Serif" font-size="10.00">/ce103&#45;final/ce103&#45;final</text>
<text text-anchor="start" x="137.12" y="-294.5" font-family="Helvetica,sans-Serif" font-size="10.00">&#45;beyza&#45;aydin&#45;gokcenur&#45;haymana</text>
<text text-anchor="middle" x="221.5" y="-282.5" font-family="Helvetica,sans-Serif" font-size="10.00">&#45;cpp/src/utility/header/commonTypes.h</text>
</a>
</g>
</g>
<!-- Node2 -->
<g id="Node000002" class="node">
<title>Node2</title>
<g id="a_Node000002"><a xlink:href="$event_8h.html" xlink:title="Provides functions for math. utilities.">
<polygon fill="white" stroke="#666666" points="210,-240 53,-240 53,-184 210,-184 210,-240"/>
<text text-anchor="start" x="61" y="-226.5" font-family="Helvetica,sans-Serif" font-size="10.00">C:/Users/Vıctus/Desktop</text>
<text text-anchor="start" x="61" y="-214.5" font-family="Helvetica,sans-Serif" font-size="10.00">/ce103&#45;final/ce103&#45;final</text>
<text text-anchor="start" x="61" y="-202.5" font-family="Helvetica,sans-Serif" font-size="10.00">&#45;beyza&#45;aydin&#45;gokcenur&#45;haymana</text>
<text text-anchor="middle" x="131.5" y="-190.5" font-family="Helvetica,sans-Serif" font-size="10.00">&#45;cpp/src/event/header/event.h</text>
</a>
</g>
</g>
<!-- Node1&#45;&gt;Node2 -->
<g id="edge11_Node000001_Node000002" class="edge">
<title>Node1&#45;&gt;Node2</title>
<g id="a_edge11_Node000001_Node000002"><a xlink:title=" ">
<path fill="none" stroke="#63b8ff" d="M185.92,-267.42C176.9,-258.4 167.36,-248.86 158.82,-240.32"/>
<polygon fill="#63b8ff" stroke="#63b8ff" points="183.39,-269.84 192.94,-274.44 188.34,-264.89 183.39,-269.84"/>
</a>
</g>
</g>
<!-- Node5 -->
<g id="Node000005" class="node">
<title>Node5</title>
<g id="a_Node000005"><a xlink:href="$math_utility_8h.html" xlink:title="Provides functions for math. utilities.">
<polygon fill="white" stroke="#666666" points="395.25,-240 227.75,-240 227.75,-184 395.25,-184 395.25,-240"/>
<text text-anchor="start" x="235.75" y="-226.5" font-family="Helvetica,sans-Serif" font-size="10.00">C:/Users/Vıctus/Desktop</text>
<text text-anchor="start" x="235.75" y="-214.5" font-family="Helvetica,sans-Serif" font-size="10.00">/ce103&#45;final/ce103&#45;final</text>
<text text-anchor="start" x="235.75" y="-202.5" font-family="Helvetica,sans-Serif" font-size="10.00">&#45;beyza&#45;aydin&#45;gokcenur&#45;haymana</text>
<text text-anchor="middle" x="311.5" y="-190.5" font-family="Helvetica,sans-Serif" font-size="10.00">&#45;cpp/src/utility/header/mathUtility.h</text>
</a>
</g>
</g>
<!-- Node1&#45;&gt;Node5 -->
<g id="edge15_Node000001_Node000005" class="edge">
<title>Node1&#45;&gt;Node5</title>
<g id="a_edge15_Node000001_Node000005"><a xlink:title=" ">
<path fill="none" stroke="#63b8ff" d="M257.08,-267.42C266.1,-258.4 275.64,-248.86 284.18,-240.32"/>
<polygon fill="#63b8ff" stroke="#63b8ff" points="254.66,-264.89 250.06,-274.44 259.61,-269.84 254.66,-264.89"/>
</a>
</g>
</g>
<!-- Node3 -->
<g id="Node000003" class="node">
<title>Node3</title>
<g id="a_Node000003"><a xlink:href="$event_8cpp.html" xlink:title=" ">
<polygon fill="white" stroke="#666666" points="157,-148 0,-148 0,-92 157,-92 157,-148"/>
<text text-anchor="start" x="8" y="-134.5" font-family="Helvetica,sans-Serif" font-size="10.00">C:/Users/Vıctus/Desktop</text>
<text text-anchor="start" x="8" y="-122.5" font-family="Helvetica,sans-Serif" font-size="10.00">/ce103&#45;final/ce103&#45;final</text>
<text text-anchor="start" x="8" y="-110.5" font-family="Helvetica,sans-Serif" font-size="10.00">&#45;beyza&#45;aydin&#45;gokcenur&#45;haymana</text>
<text text-anchor="middle" x="78.5" y="-98.5" font-family="Helvetica,sans-Serif" font-size="10.00">&#45;cpp/src/event/src/event.cpp</text>
</a>
</g>
</g>
<!-- Node2&#45;&gt;Node3 -->
<g id="edge12_Node000002_Node000003" class="edge">
<title>Node2&#45;&gt;Node3</title>
<g id="a_edge12_Node000002_Node000003"><a xlink:title=" ">
<path fill="none" stroke="#63b8ff" d="M109.57,-173.76C104.55,-165.24 99.31,-156.34 94.59,-148.32"/>
<polygon fill="#63b8ff" stroke="#63b8ff" points="106.45,-175.36 114.54,-182.2 112.48,-171.81 106.45,-175.36"/>
</a>
</g>
</g>
<!-- Node4 -->
<g id="Node000004" class="node">
<title>Node4</title>
<g id="a_Node000004"><a xlink:href="$eventapp_8cpp.html" xlink:title=" ">
<polygon fill="white" stroke="#666666" points="216,-56 47,-56 47,0 216,0 216,-56"/>
<text text-anchor="start" x="55" y="-42.5" font-family="Helvetica,sans-Serif" font-size="10.00">C:/Users/Vıctus/Desktop</text>
<text text-anchor="start" x="55" y="-30.5" font-family="Helvetica,sans-Serif" font-size="10.00">/ce103&#45;final/ce103&#45;final</text>
<text text-anchor="start" x="55" y="-18.5" font-family="Helvetica,sans-Serif" font-size="10.00">&#45;beyza&#45;aydin&#45;gokcenur&#45;haymana</text>
<text text-anchor="middle" x="131.5" y="-6.5" font-family="Helvetica,sans-Serif" font-size="10.00">&#45;cpp/src/eventapp/src/eventapp.cpp</text>
</a>
</g>
</g>
<!-- Node2&#45;&gt;Node4 -->
<g id="edge14_Node000002_Node000004" class="edge">
<title>Node2&#45;&gt;Node4</title>
<g id="a_edge14_Node000002_Node000004"><a xlink:title=" ">
<path fill="none" stroke="#63b8ff" d="M156.18,-173.81C160.44,-165.62 164.23,-156.77 166.5,-148 172.74,-123.91 172.74,-116.09 166.5,-92 163.27,-79.52 156.97,-66.89 150.6,-56.24"/>
<polygon fill="#63b8ff" stroke="#63b8ff" points="153.17,-172 151.34,-182.44 159.28,-175.42 153.17,-172"/>
</a>
</g>
</g>
<!-- Node3&#45;&gt;Node4 -->
<g id="edge13_Node000003_Node000004" class="edge">
<title>Node3&#45;&gt;Node4</title>
<g id="a_edge13_Node000003_Node000004"><a xlink:title=" ">
<path fill="none" stroke="#63b8ff" d="M100.43,-81.76C105.45,-73.24 110.69,-64.34 115.41,-56.32"/>
<polygon fill="#63b8ff" stroke="#63b8ff" points="97.52,-79.81 95.46,-90.2 103.55,-83.36 97.52,-79.81"/>
</a>
</g>
</g>
</g>
</svg>
