<?xml version="1.0" encoding="UTF-8" standalone="no"?>
<!DOCTYPE svg PUBLIC "-//W3C//DTD SVG 1.1//EN"
 "http://www.w3.org/Graphics/SVG/1.1/DTD/svg11.dtd">
<!-- Generated by graphviz version 9.0.0 (20230911.1827)
 -->
<!-- Title: src/utility/header/commonTypes.h Pages: 1 -->
<svg width="448pt" height="164pt"
 viewBox="0.00 0.00 448.12 164.00" xmlns="http://www.w3.org/2000/svg" xmlns:xlink="http://www.w3.org/1999/xlink">
<g id="graph0" class="graph" transform="scale(1 1) rotate(0) translate(4 160)">
<title>src/utility/header/commonTypes.h</title>
<!-- Node1 -->
<g id="Node000001" class="node">
<title>Node1</title>
<g id="a_Node000001"><a xlink:title="Provides cross&#45;platform type definitions.">
<polygon fill="#999999" stroke="#666666" points="314.38,-156 223.38,-156 223.38,-124 314.38,-124 314.38,-156"/>
<text text-anchor="start" x="231.38" y="-142.5" font-family="Helvetica,sans-Serif" font-size="10.00">src/utility/header</text>
<text text-anchor="middle" x="268.88" y="-130.5" font-family="Helvetica,sans-Serif" font-size="10.00">/commonTypes.h</text>
</a>
</g>
</g>
<!-- Node2 -->
<g id="Node000002" class="node">
<title>Node2</title>
<g id="a_Node000002"><a xlink:href="$event_8h.html" xlink:title="Provides functions for math. utilities.">
<polygon fill="white" stroke="#666666" points="268.38,-82 147.38,-82 147.38,-62 268.38,-62 268.38,-82"/>
<text text-anchor="middle" x="207.88" y="-68.5" font-family="Helvetica,sans-Serif" font-size="10.00">src/event/header/event.h</text>
</a>
</g>
</g>
<!-- Node1&#45;&gt;Node2 -->
<g id="edge11_Node000001_Node000002" class="edge">
<title>Node1&#45;&gt;Node2</title>
<g id="a_edge11_Node000001_Node000002"><a xlink:title=" ">
<path fill="none" stroke="#63b8ff" d="M247.04,-115.37C236.48,-103.95 224.4,-90.88 216.49,-82.32"/>
<polygon fill="#63b8ff" stroke="#63b8ff" points="244.34,-117.61 253.7,-122.58 249.48,-112.86 244.34,-117.61"/>
</a>
</g>
</g>
<!-- Node5 -->
<g id="Node000005" class="node">
<title>Node5</title>
<g id="a_Node000005"><a xlink:href="$math_utility_8h.html" xlink:title="Provides functions for math. utilities.">
<polygon fill="white" stroke="#666666" points="393.88,-88 305.88,-88 305.88,-56 393.88,-56 393.88,-88"/>
<text text-anchor="start" x="313.88" y="-74.5" font-family="Helvetica,sans-Serif" font-size="10.00">src/utility/header</text>
<text text-anchor="middle" x="349.88" y="-62.5" font-family="Helvetica,sans-Serif" font-size="10.00">/mathUtility.h</text>
</a>
</g>
</g>
<!-- Node1&#45;&gt;Node5 -->
<g id="edge14_Node000001_Node000005" class="edge">
<title>Node1&#45;&gt;Node5</title>
<g id="a_edge14_Node000001_Node000005"><a xlink:title=" ">
<path fill="none" stroke="#63b8ff" d="M296.37,-116.6C307.73,-107.34 320.63,-96.83 330.91,-88.45"/>
<polygon fill="#63b8ff" stroke="#63b8ff" points="294.38,-113.71 288.83,-122.74 298.8,-119.13 294.38,-113.71"/>
</a>
</g>
</g>
<!-- Node3 -->
<g id="Node000003" class="node">
<title>Node3</title>
<g id="a_Node000003"><a xlink:href="$event_8cpp.html" xlink:title=" ">
<polygon fill="white" stroke="#666666" points="115.75,-20 0,-20 0,0 115.75,0 115.75,-20"/>
<text text-anchor="middle" x="57.88" y="-6.5" font-family="Helvetica,sans-Serif" font-size="10.00">src/event/src/event.cpp</text>
</a>
</g>
</g>
<!-- Node2&#45;&gt;Node3 -->
<g id="edge12_Node000002_Node000003" class="edge">
<title>Node2&#45;&gt;Node3</title>
<g id="a_edge12_Node000002_Node000003"><a xlink:title=" ">
<path fill="none" stroke="#63b8ff" d="M173.82,-57.38C145.5,-46.05 105.96,-30.23 81.15,-20.31"/>
<polygon fill="#63b8ff" stroke="#63b8ff" points="172.45,-60.6 183.03,-61.06 175.05,-54.1 172.45,-60.6"/>
</a>
</g>
</g>
<!-- Node4 -->
<g id="Node000004" class="node">
<title>Node4</title>
<g id="a_Node000004"><a xlink:href="$eventapp_8cpp.html" xlink:title="A simple program to demonstrate the usage of the event model class.">
<polygon fill="white" stroke="#666666" points="281.5,-20 134.25,-20 134.25,0 281.5,0 281.5,-20"/>
<text text-anchor="middle" x="207.88" y="-6.5" font-family="Helvetica,sans-Serif" font-size="10.00">src/eventapp/src/eventapp.cpp</text>
</a>
</g>
</g>
<!-- Node2&#45;&gt;Node4 -->
<g id="edge13_Node000002_Node000004" class="edge">
<title>Node2&#45;&gt;Node4</title>
<g id="a_edge13_Node000002_Node000004"><a xlink:title=" ">
<path fill="none" stroke="#63b8ff" d="M207.88,-50.25C207.88,-39.97 207.88,-28.09 207.88,-20.11"/>
<polygon fill="#63b8ff" stroke="#63b8ff" points="204.38,-50.11 207.88,-60.11 211.38,-50.11 204.38,-50.11"/>
</a>
</g>
</g>
<!-- Node6 -->
<g id="Node000006" class="node">
<title>Node6</title>
<g id="a_Node000006"><a xlink:href="$math_utility_8cpp.html" xlink:title="Provides functions for math. utilities.">
<polygon fill="white" stroke="#666666" points="440.12,-20 299.62,-20 299.62,0 440.12,0 440.12,-20"/>
<text text-anchor="middle" x="369.88" y="-6.5" font-family="Helvetica,sans-Serif" font-size="10.00">src/utility/src/mathUtility.cpp</text>
</a>
</g>
</g>
<!-- Node5&#45;&gt;Node6 -->
<g id="edge15_Node000005_Node000006" class="edge">
<title>Node5&#45;&gt;Node6</title>
<g id="a_edge15_Node000005_Node000006"><a xlink:title=" ">
<path fill="none" stroke="#63b8ff" d="M358.65,-44.66C361.54,-36.01 364.56,-26.95 366.74,-20.41"/>
<polygon fill="#63b8ff" stroke="#63b8ff" points="355.35,-43.52 355.5,-54.11 361.99,-45.73 355.35,-43.52"/>
</a>
</g>
</g>
</g>
</svg>
