<?xml version="1.0" encoding="UTF-8" standalone="no"?>
<!DOCTYPE svg PUBLIC "-//W3C//DTD SVG 1.1//EN"
 "http://www.w3.org/Graphics/SVG/1.1/DTD/svg11.dtd">
<!-- Generated by graphviz version 9.0.0 (20230911.1827)
 -->
<!-- Title: C:/Users/Vıctus/Desktop/ce103&#45;final/ce103&#45;final&#45;beyza&#45;aydin&#45;gokcenur&#45;haymana&#45;cpp/src/event/src/event.cpp Pages: 1 -->
<svg width="209pt" height="244pt"
 viewBox="0.00 0.00 209.25 244.00" xmlns="http://www.w3.org/2000/svg" xmlns:xlink="http://www.w3.org/1999/xlink">
<g id="graph0" class="graph" transform="scale(1 1) rotate(0) translate(4 240)">
<title>C:/Users/Vıctus/Desktop/ce103&#45;final/ce103&#45;final&#45;beyza&#45;aydin&#45;gokcenur&#45;haymana&#45;cpp/src/event/src/event.cpp</title>
<!-- Node1 -->
<g id="Node000001" class="node">
<title>Node1</title>
<g id="a_Node000001"><a xlink:title=" ">
<polygon fill="#999999" stroke="#666666" points="198,-236 41,-236 41,-180 198,-180 198,-236"/>
<text text-anchor="start" x="49" y="-222.5" font-family="Helvetica,sans-Serif" font-size="10.00">C:/Users/Vıctus/Desktop</text>
<text text-anchor="start" x="49" y="-210.5" font-family="Helvetica,sans-Serif" font-size="10.00">/ce103&#45;final/ce103&#45;final</text>
<text text-anchor="start" x="49" y="-198.5" font-family="Helvetica,sans-Serif" font-size="10.00">&#45;beyza&#45;aydin&#45;gokcenur&#45;haymana</text>
<text text-anchor="middle" x="119.5" y="-186.5" font-family="Helvetica,sans-Serif" font-size="10.00">&#45;cpp/src/event/src/event.cpp</text>
</a>
</g>
</g>
<!-- Node2 -->
<g id="Node000002" class="node">
<title>Node2</title>
<g id="a_Node000002"><a xlink:href="$event_8h.html" xlink:title="Provides functions for math. utilities.">
<polygon fill="white" stroke="#666666" points="90.5,-144 2.5,-144 2.5,-124 90.5,-124 90.5,-144"/>
<text text-anchor="middle" x="46.5" y="-130.5" font-family="Helvetica,sans-Serif" font-size="10.00">../header/event.h</text>
</a>
</g>
</g>
<!-- Node1&#45;&gt;Node2 -->
<g id="edge11_Node000001_Node000002" class="edge">
<title>Node1&#45;&gt;Node2</title>
<g id="a_edge11_Node000001_Node000002"><a xlink:title=" ">
<path fill="none" stroke="#63b8ff" d="M91.9,-179.78C82.65,-170.66 72.59,-160.73 64.29,-152.55"/>
<polygon fill="#63b8ff" stroke="#63b8ff" points="66.76,-150.07 57.18,-145.54 61.84,-155.05 66.76,-150.07"/>
</a>
</g>
</g>
<!-- Node4 -->
<g id="Node000004" class="node">
<title>Node4</title>
<g id="a_Node000004"><a xlink:title=" ">
<polygon fill="#e0e0e0" stroke="#999999" points="111.88,-20 53.12,-20 53.12,0 111.88,0 111.88,-20"/>
<text text-anchor="middle" x="82.5" y="-6.5" font-family="Helvetica,sans-Serif" font-size="10.00">stdexcept</text>
</a>
</g>
</g>
<!-- Node1&#45;&gt;Node4 -->
<g id="edge14_Node000001_Node000004" class="edge">
<title>Node1&#45;&gt;Node4</title>
<g id="a_edge14_Node000001_Node000004"><a xlink:title=" ">
<path fill="none" stroke="#63b8ff" d="M118.16,-179.6C116.17,-149.04 111.44,-98.34 100.5,-56 98.32,-47.56 94.96,-38.58 91.72,-30.88"/>
<polygon fill="#63b8ff" stroke="#63b8ff" points="94.95,-29.53 87.7,-21.8 88.55,-32.36 94.95,-29.53"/>
</a>
</g>
</g>
<!-- Node5 -->
<g id="Node000005" class="node">
<title>Node5</title>
<g id="a_Node000005"><a xlink:title=" ">
<polygon fill="#e0e0e0" stroke="#999999" points="201.25,-144 147.75,-144 147.75,-124 201.25,-124 201.25,-144"/>
<text text-anchor="middle" x="174.5" y="-130.5" font-family="Helvetica,sans-Serif" font-size="10.00">iostream</text>
</a>
</g>
</g>
<!-- Node1&#45;&gt;Node5 -->
<g id="edge15_Node000001_Node000005" class="edge">
<title>Node1&#45;&gt;Node5</title>
<g id="a_edge15_Node000001_Node000005"><a xlink:title=" ">
<path fill="none" stroke="#63b8ff" d="M140.29,-179.78C146.97,-171.04 154.2,-161.57 160.29,-153.6"/>
<polygon fill="#63b8ff" stroke="#63b8ff" points="163.06,-155.75 166.34,-145.68 157.49,-151.5 163.06,-155.75"/>
</a>
</g>
</g>
<!-- Node3 -->
<g id="Node000003" class="node">
<title>Node3</title>
<g id="a_Node000003"><a xlink:href="$common_types_8h.html" xlink:title="Provides cross&#45;platform type definitions.">
<polygon fill="white" stroke="#666666" points="91,-88 0,-88 0,-56 91,-56 91,-88"/>
<text text-anchor="start" x="8" y="-74.5" font-family="Helvetica,sans-Serif" font-size="10.00">../../utility/header</text>
<text text-anchor="middle" x="45.5" y="-62.5" font-family="Helvetica,sans-Serif" font-size="10.00">/commonTypes.h</text>
</a>
</g>
</g>
<!-- Node2&#45;&gt;Node3 -->
<g id="edge12_Node000002_Node000003" class="edge">
<title>Node2&#45;&gt;Node3</title>
<g id="a_edge12_Node000002_Node000003"><a xlink:title=" ">
<path fill="none" stroke="#63b8ff" d="M46.34,-123.62C46.23,-117.1 46.08,-108.05 45.94,-99.4"/>
<polygon fill="#63b8ff" stroke="#63b8ff" points="49.44,-99.59 45.78,-89.65 42.44,-99.71 49.44,-99.59"/>
</a>
</g>
</g>
<!-- Node3&#45;&gt;Node4 -->
<g id="edge13_Node000003_Node000004" class="edge">
<title>Node3&#45;&gt;Node4</title>
<g id="a_edge13_Node000003_Node000004"><a xlink:title=" ">
<path fill="none" stroke="#63b8ff" d="M55.03,-55.55C59.85,-47.74 65.73,-38.19 70.82,-29.94"/>
<polygon fill="#63b8ff" stroke="#63b8ff" points="73.63,-32.05 75.9,-21.7 67.68,-28.37 73.63,-32.05"/>
</a>
</g>
</g>
</g>
</svg>
