<?xml version="1.0" encoding="UTF-8" standalone="no"?>
<!DOCTYPE svg PUBLIC "-//W3C//DTD SVG 1.1//EN"
 "http://www.w3.org/Graphics/SVG/1.1/DTD/svg11.dtd">
<!-- Generated by graphviz version 9.0.0 (20230911.1827)
 -->
<!-- Title: src/event/header/event.h Pages: 1 -->
<svg width="290pt" height="84pt"
 viewBox="0.00 0.00 289.50 84.00" xmlns="http://www.w3.org/2000/svg" xmlns:xlink="http://www.w3.org/1999/xlink">
<g id="graph0" class="graph" transform="scale(1 1) rotate(0) translate(4 80)">
<title>src/event/header/event.h</title>
<!-- Node1 -->
<g id="Node000001" class="node">
<title>Node1</title>
<g id="a_Node000001"><a xlink:title="Provides functions for math. utilities.">
<polygon fill="#999999" stroke="#666666" points="193.38,-76 72.38,-76 72.38,-56 193.38,-56 193.38,-76"/>
<text text-anchor="middle" x="132.88" y="-62.5" font-family="Helvetica,sans-Serif" font-size="10.00">src/event/header/event.h</text>
</a>
</g>
</g>
<!-- Node2 -->
<g id="Node000002" class="node">
<title>Node2</title>
<g id="a_Node000002"><a xlink:href="$event_8cpp.html" xlink:title=" ">
<polygon fill="white" stroke="#666666" points="115.75,-20 0,-20 0,0 115.75,0 115.75,-20"/>
<text text-anchor="middle" x="57.88" y="-6.5" font-family="Helvetica,sans-Serif" font-size="10.00">src/event/src/event.cpp</text>
</a>
</g>
</g>
<!-- Node1&#45;&gt;Node2 -->
<g id="edge5_Node000001_Node000002" class="edge">
<title>Node1&#45;&gt;Node2</title>
<g id="a_edge5_Node000001_Node000002"><a xlink:title=" ">
<path fill="none" stroke="#63b8ff" d="M110.65,-49C97.76,-39.72 81.97,-28.35 71.04,-20.48"/>
<polygon fill="#63b8ff" stroke="#63b8ff" points="108.42,-51.71 118.58,-54.71 112.51,-46.03 108.42,-51.71"/>
</a>
</g>
</g>
<!-- Node3 -->
<g id="Node000003" class="node">
<title>Node3</title>
<g id="a_Node000003"><a xlink:href="$eventapp_8cpp.html" xlink:title="A simple program to demonstrate the usage of the event model class.">
<polygon fill="white" stroke="#666666" points="281.5,-20 134.25,-20 134.25,0 281.5,0 281.5,-20"/>
<text text-anchor="middle" x="207.88" y="-6.5" font-family="Helvetica,sans-Serif" font-size="10.00">src/eventapp/src/eventapp.cpp</text>
</a>
</g>
</g>
<!-- Node1&#45;&gt;Node3 -->
<g id="edge6_Node000001_Node000003" class="edge">
<title>Node1&#45;&gt;Node3</title>
<g id="a_edge6_Node000001_Node000003"><a xlink:title=" ">
<path fill="none" stroke="#63b8ff" d="M155.1,-49C167.99,-39.72 183.78,-28.35 194.71,-20.48"/>
<polygon fill="#63b8ff" stroke="#63b8ff" points="153.24,-46.03 147.17,-54.71 157.33,-51.71 153.24,-46.03"/>
</a>
</g>
</g>
</g>
</svg>
