<?xml version="1.0" encoding="UTF-8" standalone="no"?>
<!DOCTYPE svg PUBLIC "-//W3C//DTD SVG 1.1//EN"
 "http://www.w3.org/Graphics/SVG/1.1/DTD/svg11.dtd">
<!-- Generated by graphviz version 9.0.0 (20230911.1827)
 -->
<!-- Title: src/event/header/event.h Pages: 1 -->
<svg width="183pt" height="140pt"
 viewBox="0.00 0.00 182.50 140.00" xmlns="http://www.w3.org/2000/svg" xmlns:xlink="http://www.w3.org/1999/xlink">
<g id="graph0" class="graph" transform="scale(1 1) rotate(0) translate(4 136)">
<title>src/event/header/event.h</title>
<!-- Node1 -->
<g id="Node000001" class="node">
<title>Node1</title>
<g id="a_Node000001"><a xlink:title="Provides functions for math. utilities.">
<polygon fill="#999999" stroke="#666666" points="161.38,-132 40.38,-132 40.38,-112 161.38,-112 161.38,-132"/>
<text text-anchor="middle" x="100.88" y="-118.5" font-family="Helvetica,sans-Serif" font-size="10.00">src/event/header/event.h</text>
</a>
</g>
</g>
<!-- Node2 -->
<g id="Node000002" class="node">
<title>Node2</title>
<g id="a_Node000002"><a xlink:href="$event_8cpp.html" xlink:title=" ">
<polygon fill="white" stroke="#666666" points="115.75,-76 0,-76 0,-56 115.75,-56 115.75,-76"/>
<text text-anchor="middle" x="57.88" y="-62.5" font-family="Helvetica,sans-Serif" font-size="10.00">src/event/src/event.cpp</text>
</a>
</g>
</g>
<!-- Node1&#45;&gt;Node2 -->
<g id="edge7_Node000001_Node000002" class="edge">
<title>Node1&#45;&gt;Node2</title>
<g id="a_edge7_Node000001_Node000002"><a xlink:title=" ">
<path fill="none" stroke="#63b8ff" d="M86.32,-102.72C79.25,-93.84 71.05,-83.55 65.28,-76.3"/>
<polygon fill="#63b8ff" stroke="#63b8ff" points="83.47,-104.77 92.44,-110.41 88.95,-100.41 83.47,-104.77"/>
</a>
</g>
</g>
<!-- Node3 -->
<g id="Node000003" class="node">
<title>Node3</title>
<g id="a_Node000003"><a xlink:href="$eventapp_8cpp.html" xlink:title=" ">
<polygon fill="white" stroke="#666666" points="174.5,-20 27.25,-20 27.25,0 174.5,0 174.5,-20"/>
<text text-anchor="middle" x="100.88" y="-6.5" font-family="Helvetica,sans-Serif" font-size="10.00">src/eventapp/src/eventapp.cpp</text>
</a>
</g>
</g>
<!-- Node1&#45;&gt;Node3 -->
<g id="edge9_Node000001_Node000003" class="edge">
<title>Node1&#45;&gt;Node3</title>
<g id="a_edge9_Node000001_Node000003"><a xlink:title=" ">
<path fill="none" stroke="#63b8ff" d="M113.76,-101.84C118.21,-94.15 122.63,-84.99 124.88,-76 129.95,-55.69 117.04,-32.96 108.25,-20.48"/>
<polygon fill="#63b8ff" stroke="#63b8ff" points="110.82,-99.94 108.5,-110.28 116.76,-103.65 110.82,-99.94"/>
</a>
</g>
</g>
<!-- Node2&#45;&gt;Node3 -->
<g id="edge8_Node000002_Node000003" class="edge">
<title>Node2&#45;&gt;Node3</title>
<g id="a_edge8_Node000002_Node000003"><a xlink:title=" ">
<path fill="none" stroke="#63b8ff" d="M72.43,-46.72C79.5,-37.84 87.7,-27.55 93.47,-20.3"/>
<polygon fill="#63b8ff" stroke="#63b8ff" points="69.8,-44.41 66.31,-54.41 75.28,-48.77 69.8,-44.41"/>
</a>
</g>
</g>
</g>
</svg>
