<?xml version="1.0" encoding="UTF-8" standalone="no"?>
<!DOCTYPE svg PUBLIC "-//W3C//DTD SVG 1.1//EN"
 "http://www.w3.org/Graphics/SVG/1.1/DTD/svg11.dtd">
<!-- Generated by graphviz version 9.0.0 (20230911.1827)
 -->
<!-- Title: C:/Users/Vıctus/Desktop/ce103&#45;final/ce103&#45;final&#45;beyza&#45;aydin&#45;gokcenur&#45;haymana&#45;cpp/src/eventapp/src/eventapp.cpp Pages: 1 -->
<svg width="464pt" height="312pt"
 viewBox="0.00 0.00 463.66 312.00" xmlns="http://www.w3.org/2000/svg" xmlns:xlink="http://www.w3.org/1999/xlink">
<g id="graph0" class="graph" transform="scale(1 1) rotate(0) translate(4 308)">
<title>C:/Users/Vıctus/Desktop/ce103&#45;final/ce103&#45;final&#45;beyza&#45;aydin&#45;gokcenur&#45;haymana&#45;cpp/src/eventapp/src/eventapp.cpp</title>
<!-- Node1 -->
<g id="Node000001" class="node">
<title>Node1</title>
<g id="a_Node000001"><a xlink:title=" ">
<polygon fill="#999999" stroke="#666666" points="302.04,-304 133.04,-304 133.04,-248 302.04,-248 302.04,-304"/>
<text text-anchor="start" x="141.04" y="-290.5" font-family="Helvetica,sans-Serif" font-size="10.00">C:/Users/Vıctus/Desktop</text>
<text text-anchor="start" x="141.04" y="-278.5" font-family="Helvetica,sans-Serif" font-size="10.00">/ce103&#45;final/ce103&#45;final</text>
<text text-anchor="start" x="141.04" y="-266.5" font-family="Helvetica,sans-Serif" font-size="10.00">&#45;beyza&#45;aydin&#45;gokcenur&#45;haymana</text>
<text text-anchor="middle" x="217.54" y="-254.5" font-family="Helvetica,sans-Serif" font-size="10.00">&#45;cpp/src/eventapp/src/eventapp.cpp</text>
</a>
</g>
</g>
<!-- Node2 -->
<g id="Node000002" class="node">
<title>Node2</title>
<g id="a_Node000002"><a xlink:title=" ">
<polygon fill="#e0e0e0" stroke="#999999" points="70.29,-150 16.79,-150 16.79,-130 70.29,-130 70.29,-150"/>
<text text-anchor="middle" x="43.54" y="-136.5" font-family="Helvetica,sans-Serif" font-size="10.00">iostream</text>
</a>
</g>
</g>
<!-- Node1&#45;&gt;Node2 -->
<g id="edge27_Node000001_Node000002" class="edge">
<title>Node1&#45;&gt;Node2</title>
<g id="a_edge27_Node000001_Node000002"><a xlink:title=" ">
<path fill="none" stroke="#63b8ff" d="M132.98,-266.54C97.78,-258.36 60.15,-242.52 38.54,-212 28.17,-197.36 31.17,-176.49 35.71,-161.16"/>
<polygon fill="#63b8ff" stroke="#63b8ff" points="39.02,-162.31 38.96,-151.72 32.4,-160.03 39.02,-162.31"/>
</a>
</g>
</g>
<!-- Node3 -->
<g id="Node000003" class="node">
<title>Node3</title>
<g id="a_Node000003"><a xlink:title=" ">
<polygon fill="#e0e0e0" stroke="#999999" points="261.54,-212 221.54,-212 221.54,-192 261.54,-192 261.54,-212"/>
<text text-anchor="middle" x="241.54" y="-198.5" font-family="Helvetica,sans-Serif" font-size="10.00">stack</text>
</a>
</g>
</g>
<!-- Node1&#45;&gt;Node3 -->
<g id="edge28_Node000001_Node000003" class="edge">
<title>Node1&#45;&gt;Node3</title>
<g id="a_edge28_Node000001_Node000003"><a xlink:title=" ">
<path fill="none" stroke="#63b8ff" d="M226.61,-247.78C229.33,-239.63 232.26,-230.83 234.8,-223.21"/>
<polygon fill="#63b8ff" stroke="#63b8ff" points="238.06,-224.5 237.9,-213.91 231.42,-222.29 238.06,-224.5"/>
</a>
</g>
</g>
<!-- Node4 -->
<g id="Node000004" class="node">
<title>Node4</title>
<g id="a_Node000004"><a xlink:title=" ">
<polygon fill="#e0e0e0" stroke="#999999" points="319.54,-212 279.54,-212 279.54,-192 319.54,-192 319.54,-212"/>
<text text-anchor="middle" x="299.54" y="-198.5" font-family="Helvetica,sans-Serif" font-size="10.00">string</text>
</a>
</g>
</g>
<!-- Node1&#45;&gt;Node4 -->
<g id="edge29_Node000001_Node000004" class="edge">
<title>Node1&#45;&gt;Node4</title>
<g id="a_edge29_Node000001_Node000004"><a xlink:title=" ">
<path fill="none" stroke="#63b8ff" d="M248.54,-247.78C259.15,-238.46 270.72,-228.31 280.15,-220.03"/>
<polygon fill="#63b8ff" stroke="#63b8ff" points="282.41,-222.7 287.61,-213.47 277.79,-217.44 282.41,-222.7"/>
</a>
</g>
</g>
<!-- Node5 -->
<g id="Node000005" class="node">
<title>Node5</title>
<g id="a_Node000005"><a xlink:title=" ">
<polygon fill="#e0e0e0" stroke="#999999" points="389.16,-212 337.91,-212 337.91,-192 389.16,-192 389.16,-212"/>
<text text-anchor="middle" x="363.54" y="-198.5" font-family="Helvetica,sans-Serif" font-size="10.00">sstream</text>
</a>
</g>
</g>
<!-- Node1&#45;&gt;Node5 -->
<g id="edge30_Node000001_Node000005" class="edge">
<title>Node1&#45;&gt;Node5</title>
<g id="a_edge30_Node000001_Node000005"><a xlink:title=" ">
<path fill="none" stroke="#63b8ff" d="M273.15,-247.57C293.97,-237.31 316.8,-226.05 334.3,-217.42"/>
<polygon fill="#63b8ff" stroke="#63b8ff" points="335.67,-220.65 343.09,-213.08 332.57,-214.37 335.67,-220.65"/>
</a>
</g>
</g>
<!-- Node6 -->
<g id="Node000006" class="node">
<title>Node6</title>
<g id="a_Node000006"><a xlink:title=" ">
<polygon fill="#e0e0e0" stroke="#999999" points="455.66,-212 407.41,-212 407.41,-192 455.66,-192 455.66,-212"/>
<text text-anchor="middle" x="431.54" y="-198.5" font-family="Helvetica,sans-Serif" font-size="10.00">fstream</text>
</a>
</g>
</g>
<!-- Node1&#45;&gt;Node6 -->
<g id="edge31_Node000001_Node000006" class="edge">
<title>Node1&#45;&gt;Node6</title>
<g id="a_edge31_Node000001_Node000006"><a xlink:title=" ">
<path fill="none" stroke="#63b8ff" d="M299.05,-247.57C332.75,-236.24 370.02,-223.7 396.42,-214.81"/>
<polygon fill="#63b8ff" stroke="#63b8ff" points="397.24,-218.23 405.6,-211.73 395.01,-211.6 397.24,-218.23"/>
</a>
</g>
</g>
<!-- Node7 -->
<g id="Node000007" class="node">
<title>Node7</title>
<g id="a_Node000007"><a xlink:title=" ">
<polygon fill="#e0e0e0" stroke="#999999" points="131.91,-20 73.16,-20 73.16,0 131.91,0 131.91,-20"/>
<text text-anchor="middle" x="102.54" y="-6.5" font-family="Helvetica,sans-Serif" font-size="10.00">stdexcept</text>
</a>
</g>
</g>
<!-- Node1&#45;&gt;Node7 -->
<g id="edge32_Node000001_Node000007" class="edge">
<title>Node1&#45;&gt;Node7</title>
<g id="a_edge32_Node000001_Node000007"><a xlink:title=" ">
<path fill="none" stroke="#63b8ff" d="M132.85,-263.37C96.8,-254.57 56.68,-239.12 28.54,-212 -0.42,-184.1 -6.23,-161.78 7.54,-124 22.27,-83.58 58.53,-47.58 81.75,-27.58"/>
<polygon fill="#63b8ff" stroke="#63b8ff" points="83.93,-30.33 89.36,-21.23 79.44,-24.96 83.93,-30.33"/>
</a>
</g>
</g>
<!-- Node8 -->
<g id="Node000008" class="node">
<title>Node8</title>
<g id="a_Node000008"><a xlink:href="$event_8h.html" xlink:title="Provides functions for math. utilities.">
<polygon fill="white" stroke="#666666" points="220.91,-156 132.16,-156 132.16,-124 220.91,-124 220.91,-156"/>
<text text-anchor="start" x="140.16" y="-142.5" font-family="Helvetica,sans-Serif" font-size="10.00">../../event/header</text>
<text text-anchor="middle" x="176.54" y="-130.5" font-family="Helvetica,sans-Serif" font-size="10.00">/event.h</text>
</a>
</g>
</g>
<!-- Node1&#45;&gt;Node8 -->
<g id="edge33_Node000001_Node000008" class="edge">
<title>Node1&#45;&gt;Node8</title>
<g id="a_edge33_Node000001_Node000008"><a xlink:title=" ">
<path fill="none" stroke="#63b8ff" d="M209.14,-247.56C201.93,-223.98 191.6,-190.21 184.51,-167.04"/>
<polygon fill="#63b8ff" stroke="#63b8ff" points="187.94,-166.3 181.67,-157.76 181.24,-168.34 187.94,-166.3"/>
</a>
</g>
</g>
<!-- Node10 -->
<g id="Node000010" class="node">
<title>Node10</title>
<g id="a_Node000010"><a xlink:href="$event_8cpp.html" xlink:title=" ">
<polygon fill="white" stroke="#666666" points="165.16,-212 47.91,-212 47.91,-192 165.16,-192 165.16,-212"/>
<text text-anchor="middle" x="106.54" y="-198.5" font-family="Helvetica,sans-Serif" font-size="10.00">../../event/src/event.cpp</text>
</a>
</g>
</g>
<!-- Node1&#45;&gt;Node10 -->
<g id="edge36_Node000001_Node000010" class="edge">
<title>Node1&#45;&gt;Node10</title>
<g id="a_edge36_Node000001_Node000010"><a xlink:title=" ">
<path fill="none" stroke="#63b8ff" d="M175.26,-247.57C160.17,-237.79 143.71,-227.11 130.68,-218.66"/>
<polygon fill="#63b8ff" stroke="#63b8ff" points="132.62,-215.74 122.32,-213.24 128.81,-221.62 132.62,-215.74"/>
</a>
</g>
</g>
<!-- Node9 -->
<g id="Node000009" class="node">
<title>Node9</title>
<g id="a_Node000009"><a xlink:href="$common_types_8h.html" xlink:title="Provides cross&#45;platform type definitions.">
<polygon fill="white" stroke="#666666" points="222.04,-88 131.04,-88 131.04,-56 222.04,-56 222.04,-88"/>
<text text-anchor="start" x="139.04" y="-74.5" font-family="Helvetica,sans-Serif" font-size="10.00">../../utility/header</text>
<text text-anchor="middle" x="176.54" y="-62.5" font-family="Helvetica,sans-Serif" font-size="10.00">/commonTypes.h</text>
</a>
</g>
</g>
<!-- Node8&#45;&gt;Node9 -->
<g id="edge34_Node000008_Node000009" class="edge">
<title>Node8&#45;&gt;Node9</title>
<g id="a_edge34_Node000008_Node000009"><a xlink:title=" ">
<path fill="none" stroke="#63b8ff" d="M176.54,-123.69C176.54,-116.53 176.54,-107.79 176.54,-99.59"/>
<polygon fill="#63b8ff" stroke="#63b8ff" points="180.04,-99.74 176.54,-89.74 173.04,-99.74 180.04,-99.74"/>
</a>
</g>
</g>
<!-- Node9&#45;&gt;Node7 -->
<g id="edge35_Node000009_Node000007" class="edge">
<title>Node9&#45;&gt;Node7</title>
<g id="a_edge35_Node000009_Node000007"><a xlink:title=" ">
<path fill="none" stroke="#63b8ff" d="M157.48,-55.55C146.88,-46.95 133.69,-36.26 122.89,-27.5"/>
<polygon fill="#63b8ff" stroke="#63b8ff" points="125.29,-24.94 115.32,-21.36 120.88,-30.38 125.29,-24.94"/>
</a>
</g>
</g>
<!-- Node10&#45;&gt;Node2 -->
<g id="edge39_Node000010_Node000002" class="edge">
<title>Node10&#45;&gt;Node2</title>
<g id="a_edge39_Node000010_Node000002"><a xlink:title=" ">
<path fill="none" stroke="#63b8ff" d="M96.69,-191.62C87.21,-182.59 72.64,-168.72 61.16,-157.78"/>
<polygon fill="#63b8ff" stroke="#63b8ff" points="63.86,-155.52 54.2,-151.16 59.03,-160.59 63.86,-155.52"/>
</a>
</g>
</g>
<!-- Node10&#45;&gt;Node7 -->
<g id="edge38_Node000010_Node000007" class="edge">
<title>Node10&#45;&gt;Node7</title>
<g id="a_edge38_Node000010_Node000007"><a xlink:title=" ">
<path fill="none" stroke="#63b8ff" d="M106.34,-191.58C105.73,-162.39 103.84,-72.97 102.98,-31.96"/>
<polygon fill="#63b8ff" stroke="#63b8ff" points="106.48,-31.92 102.77,-21.99 99.48,-32.06 106.48,-31.92"/>
</a>
</g>
</g>
<!-- Node10&#45;&gt;Node8 -->
<g id="edge37_Node000010_Node000008" class="edge">
<title>Node10&#45;&gt;Node8</title>
<g id="a_edge37_Node000010_Node000008"><a xlink:title=" ">
<path fill="none" stroke="#63b8ff" d="M117.48,-191.62C126.15,-184.19 138.66,-173.47 149.93,-163.81"/>
<polygon fill="#63b8ff" stroke="#63b8ff" points="152.14,-166.52 157.45,-157.36 147.58,-161.21 152.14,-166.52"/>
</a>
</g>
</g>
</g>
</svg>
