<?xml version="1.0" encoding="UTF-8" standalone="no"?>
<!DOCTYPE svg PUBLIC "-//W3C//DTD SVG 1.1//EN"
 "http://www.w3.org/Graphics/SVG/1.1/DTD/svg11.dtd">
<!-- Generated by graphviz version 9.0.0 (20230911.1827)
 -->
<!-- Title: C:/Users/Vıctus/Desktop/ce103&#45;final/ce103&#45;final&#45;beyza&#45;aydin&#45;gokcenur&#45;haymana&#45;cpp/src/utility/header/mathUtility.h Pages: 1 -->
<svg width="176pt" height="176pt"
 viewBox="0.00 0.00 175.50 176.00" xmlns="http://www.w3.org/2000/svg" xmlns:xlink="http://www.w3.org/1999/xlink">
<g id="graph0" class="graph" transform="scale(1 1) rotate(0) translate(4 172)">
<title>C:/Users/Vıctus/Desktop/ce103&#45;final/ce103&#45;final&#45;beyza&#45;aydin&#45;gokcenur&#45;haymana&#45;cpp/src/utility/header/mathUtility.h</title>
<!-- Node1 -->
<g id="Node000001" class="node">
<title>Node1</title>
<g id="a_Node000001"><a xlink:title="Provides functions for math. utilities.">
<polygon fill="#999999" stroke="#666666" points="167.5,-168 0,-168 0,-112 167.5,-112 167.5,-168"/>
<text text-anchor="start" x="8" y="-154.5" font-family="Helvetica,sans-Serif" font-size="10.00">C:/Users/Vıctus/Desktop</text>
<text text-anchor="start" x="8" y="-142.5" font-family="Helvetica,sans-Serif" font-size="10.00">/ce103&#45;final/ce103&#45;final</text>
<text text-anchor="start" x="8" y="-130.5" font-family="Helvetica,sans-Serif" font-size="10.00">&#45;beyza&#45;aydin&#45;gokcenur&#45;haymana</text>
<text text-anchor="middle" x="83.75" y="-118.5" font-family="Helvetica,sans-Serif" font-size="10.00">&#45;cpp/src/utility/header/mathUtility.h</text>
</a>
</g>
</g>
<!-- Node2 -->
<g id="Node000002" class="node">
<title>Node2</title>
<g id="a_Node000002"><a xlink:href="$common_types_8h.html" xlink:title="Provides cross&#45;platform type definitions.">
<polygon fill="white" stroke="#666666" points="127.75,-76 39.75,-76 39.75,-56 127.75,-56 127.75,-76"/>
<text text-anchor="middle" x="83.75" y="-62.5" font-family="Helvetica,sans-Serif" font-size="10.00">commonTypes.h</text>
</a>
</g>
</g>
<!-- Node1&#45;&gt;Node2 -->
<g id="edge5_Node000001_Node000002" class="edge">
<title>Node1&#45;&gt;Node2</title>
<g id="a_edge5_Node000001_Node000002"><a xlink:title=" ">
<path fill="none" stroke="#63b8ff" d="M83.75,-111.78C83.75,-103.82 83.75,-95.25 83.75,-87.76"/>
<polygon fill="#63b8ff" stroke="#63b8ff" points="87.25,-87.99 83.75,-77.99 80.25,-87.99 87.25,-87.99"/>
</a>
</g>
</g>
<!-- Node3 -->
<g id="Node000003" class="node">
<title>Node3</title>
<g id="a_Node000003"><a xlink:title=" ">
<polygon fill="#e0e0e0" stroke="#999999" points="113.12,-20 54.38,-20 54.38,0 113.12,0 113.12,-20"/>
<text text-anchor="middle" x="83.75" y="-6.5" font-family="Helvetica,sans-Serif" font-size="10.00">stdexcept</text>
</a>
</g>
</g>
<!-- Node2&#45;&gt;Node3 -->
<g id="edge6_Node000002_Node000003" class="edge">
<title>Node2&#45;&gt;Node3</title>
<g id="a_edge6_Node000002_Node000003"><a xlink:title=" ">
<path fill="none" stroke="#63b8ff" d="M83.75,-55.59C83.75,-49.01 83.75,-39.96 83.75,-31.73"/>
<polygon fill="#63b8ff" stroke="#63b8ff" points="87.25,-31.81 83.75,-21.81 80.25,-31.81 87.25,-31.81"/>
</a>
</g>
</g>
</g>
</svg>
